<svg width="32" height="32" viewBox="0 0 32 32" fill="none" xmlns="http://www.w3.org/2000/svg">
<path d="M0 8.74841C0 8.65924 0.0746192 8.58696 0.166667 8.58696H2.61594C2.70799 8.58696 2.78261 8.65924 2.78261 8.74841V11.1211C2.78261 11.2103 2.70799 11.2826 2.61594 11.2826H0.166667C0.0746192 11.2826 0 11.2103 0 11.1211V8.74841Z" fill="#F0F1F4"/>
<path d="M0 12.7919C0 12.7027 0.0746192 12.6304 0.166667 12.6304H2.61594C2.70799 12.6304 2.78261 12.7027 2.78261 12.7919V15.1646C2.78261 15.2538 2.70799 15.3261 2.61594 15.3261H0.166667C0.0746192 15.3261 0 15.2538 0 15.1646V12.7919Z" fill="#F0F1F4"/>
<path d="M0 16.8354C0 16.7462 0.0746192 16.6739 0.166667 16.6739H2.61594C2.70799 16.6739 2.78261 16.7462 2.78261 16.8354V19.2081C2.78261 19.2973 2.70799 19.3696 2.61594 19.3696H0.166667C0.0746192 19.3696 0 19.2973 0 19.2081V16.8354Z" fill="#F0F1F4"/>
<path d="M0 20.8788C0 20.7897 0.0746192 20.7174 0.166667 20.7174H2.61594C2.70799 20.7174 2.78261 20.7897 2.78261 20.8788V23.2516C2.78261 23.3408 2.70799 23.413 2.61594 23.413H0.166667C0.0746192 23.413 0 23.3408 0 23.2516V20.8788Z" fill="#F0F1F4"/>
<path d="M4.17391 8.74841C4.17391 8.65924 4.24853 8.58696 4.34058 8.58696H6.78986C6.8819 8.58696 6.95652 8.65924 6.95652 8.74841V11.1211C6.95652 11.2103 6.8819 11.2826 6.78985 11.2826H4.34058C4.24853 11.2826 4.17391 11.2103 4.17391 11.1211V8.74841Z" fill="#F0F1F4"/>
<path d="M25.0435 8.74841C25.0435 8.65924 25.1181 8.58696 25.2101 8.58696H27.6594C27.7515 8.58696 27.8261 8.65924 27.8261 8.74841V11.1211C27.8261 11.2103 27.7515 11.2826 27.6594 11.2826H25.2101C25.1181 11.2826 25.0435 11.2103 25.0435 11.1211V8.74841Z" fill="#F0F1F4"/>
<path d="M29.2174 8.74841C29.2174 8.65924 29.292 8.58696 29.3841 8.58696H31.8333C31.9254 8.58696 32 8.65924 32 8.74841V11.1211C32 11.2103 31.9254 11.2826 31.8333 11.2826H29.3841C29.292 11.2826 29.2174 11.2103 29.2174 11.1211V8.74841Z" fill="#F0F1F4"/>
<path d="M4.17391 12.7919C4.17391 12.7027 4.24853 12.6304 4.34058 12.6304H6.78986C6.8819 12.6304 6.95652 12.7027 6.95652 12.7919V15.1646C6.95652 15.2538 6.8819 15.3261 6.78985 15.3261H4.34058C4.24853 15.3261 4.17391 15.2538 4.17391 15.1646V12.7919Z" fill="#F0F1F4"/>
<path d="M25.0435 12.7919C25.0435 12.7027 25.1181 12.6304 25.2101 12.6304H27.6594C27.7515 12.6304 27.8261 12.7027 27.8261 12.7919V15.1646C27.8261 15.2538 27.7515 15.3261 27.6594 15.3261H25.2101C25.1181 15.3261 25.0435 15.2538 25.0435 15.1646V12.7919Z" fill="#F0F1F4"/>
<path d="M29.2174 12.7919C29.2174 12.7027 29.292 12.6304 29.3841 12.6304H31.8333C31.9254 12.6304 32 12.7027 32 12.7919V15.1646C32 15.2538 31.9254 15.3261 31.8333 15.3261H29.3841C29.292 15.3261 29.2174 15.2538 29.2174 15.1646V12.7919Z" fill="#F0F1F4"/>
<path d="M4.17391 16.8354C4.17391 16.7462 4.24853 16.6739 4.34058 16.6739H6.78986C6.8819 16.6739 6.95652 16.7462 6.95652 16.8354V19.2081C6.95652 19.2973 6.8819 19.3696 6.78985 19.3696H4.34058C4.24853 19.3696 4.17391 19.2973 4.17391 19.2081V16.8354Z" fill="#F0F1F4"/>
<path d="M25.0435 16.8354C25.0435 16.7462 25.1181 16.6739 25.2101 16.6739H27.6594C27.7515 16.6739 27.8261 16.7462 27.8261 16.8354V19.2081C27.8261 19.2973 27.7515 19.3696 27.6594 19.3696H25.2101C25.1181 19.3696 25.0435 19.2973 25.0435 19.2081V16.8354Z" fill="#F0F1F4"/>
<path d="M29.2174 16.8354C29.2174 16.7462 29.292 16.6739 29.3841 16.6739H31.8333C31.9254 16.6739 32 16.7462 32 16.8354V19.2081C32 19.2973 31.9254 19.3696 31.8333 19.3696H29.3841C29.292 19.3696 29.2174 19.2973 29.2174 19.2081V16.8354Z" fill="#F0F1F4"/>
<path d="M4.17391 20.8788C4.17391 20.7897 4.24853 20.7174 4.34058 20.7174H6.78986C6.8819 20.7174 6.95652 20.7897 6.95652 20.8788V23.2516C6.95652 23.3408 6.8819 23.413 6.78985 23.413H4.34058C4.24853 23.413 4.17391 23.3408 4.17391 23.2516V20.8788Z" fill="#F0F1F4"/>
<path d="M29.2174 20.8788C29.2174 20.7897 29.292 20.7174 29.3841 20.7174H31.8333C31.9254 20.7174 32 20.7897 32 20.8788V23.2516C32 23.3408 31.9254 23.413 31.8333 23.413H29.3841C29.292 23.413 29.2174 23.3408 29.2174 23.2516V20.8788Z" fill="#F0F1F4"/>
<path d="M4.17391 24.9223C4.17391 24.8332 4.24853 24.7609 4.34058 24.7609H6.78986C6.8819 24.7609 6.95652 24.8332 6.95652 24.9223V27.2951C6.95652 27.3842 6.8819 27.4565 6.78985 27.4565H4.34058C4.24853 27.4565 4.17391 27.3842 4.17391 27.2951V24.9223Z" fill="#F0F1F4"/>
<path d="M25.0435 24.9223C25.0435 24.8332 25.1181 24.7609 25.2101 24.7609H27.6594C27.7515 24.7609 27.8261 24.8332 27.8261 24.9223V27.2951C27.8261 27.3842 27.7515 27.4565 27.6594 27.4565H25.2101C25.1181 27.4565 25.0435 27.3842 25.0435 27.2951V24.9223Z" fill="#F0F1F4"/>
<path d="M20.8696 20.8788C20.8696 20.7897 20.9442 20.7174 21.0362 20.7174H23.4855C23.5776 20.7174 23.6522 20.7897 23.6522 20.8788V23.2516C23.6522 23.3408 23.5776 23.413 23.4855 23.413H21.0362C20.9442 23.413 20.8696 23.3408 20.8696 23.2516V20.8788Z" fill="#F0F1F4"/>
<path d="M16.6957 16.8354C16.6957 16.7462 16.7703 16.6739 16.8623 16.6739H19.3116C19.4036 16.6739 19.4783 16.7462 19.4783 16.8354V19.2081C19.4783 19.2973 19.4036 19.3696 19.3116 19.3696H16.8623C16.7703 19.3696 16.6957 19.2973 16.6957 19.2081V16.8354Z" fill="#F0F1F4"/>
<path d="M29.2174 28.9658C29.2174 28.8766 29.292 28.8043 29.3841 28.8043H31.8333C31.9254 28.8043 32 28.8766 32 28.9658V31.3385C32 31.4277 31.9254 31.5 31.8333 31.5H29.3841C29.292 31.5 29.2174 31.4277 29.2174 31.3385V28.9658Z" fill="#F0F1F4"/>
<path d="M4.17391 4.70494C4.17391 4.61577 4.24853 4.54348 4.34058 4.54348H6.78986C6.8819 4.54348 6.95652 4.61577 6.95652 4.70494V7.07767C6.95652 7.16684 6.8819 7.23913 6.78985 7.23913H4.34058C4.24853 7.23913 4.17391 7.16684 4.17391 7.07767V4.70494Z" fill="#F0F1F4"/>
<path d="M8.34783 4.70494C8.34783 4.61577 8.42245 4.54348 8.51449 4.54348H10.9638C11.0558 4.54348 11.1304 4.61577 11.1304 4.70494V7.07767C11.1304 7.16684 11.0558 7.23913 10.9638 7.23913H8.51449C8.42245 7.23913 8.34783 7.16684 8.34783 7.07767V4.70494Z" fill="#F0F1F4"/>
<path d="M8.34783 24.9223C8.34783 24.8332 8.42245 24.7609 8.51449 24.7609H10.9638C11.0558 24.7609 11.1304 24.8332 11.1304 24.9223V27.2951C11.1304 27.3842 11.0558 27.4565 10.9638 27.4565H8.51449C8.42245 27.4565 8.34783 27.3842 8.34783 27.2951V24.9223Z" fill="#F0F1F4"/>
<path d="M8.34783 28.9658C8.34783 28.8766 8.42245 28.8043 8.51449 28.8043H10.9638C11.0558 28.8043 11.1304 28.8766 11.1304 28.9658V31.3385C11.1304 31.4277 11.0558 31.5 10.9638 31.5H8.51449C8.42245 31.5 8.34783 31.4277 8.34783 31.3385V28.9658Z" fill="#F0F1F4"/>
<path d="M8.34783 0.661458C8.34783 0.572287 8.42245 0.5 8.51449 0.5H10.9638C11.0558 0.5 11.1304 0.572287 11.1304 0.661458V3.03419C11.1304 3.12336 11.0558 3.19565 10.9638 3.19565H8.51449C8.42245 3.19565 8.34783 3.12336 8.34783 3.03419V0.661458Z" fill="#F0F1F4"/>
<path d="M12.5217 4.70494C12.5217 4.61577 12.5964 4.54348 12.6884 4.54348H15.1377C15.2297 4.54348 15.3043 4.61577 15.3043 4.70494V7.07767C15.3043 7.16684 15.2297 7.23913 15.1377 7.23913H12.6884C12.5964 7.23913 12.5217 7.16684 12.5217 7.07767V4.70494Z" fill="#F0F1F4"/>
<path d="M12.5217 24.9223C12.5217 24.8332 12.5964 24.7609 12.6884 24.7609H15.1377C15.2297 24.7609 15.3043 24.8332 15.3043 24.9223V27.2951C15.3043 27.3842 15.2297 27.4565 15.1377 27.4565H12.6884C12.5964 27.4565 12.5217 27.3842 12.5217 27.2951V24.9223Z" fill="#F0F1F4"/>
<path d="M12.5217 28.9658C12.5217 28.8766 12.5964 28.8043 12.6884 28.8043H15.1377C15.2297 28.8043 15.3043 28.8766 15.3043 28.9658V31.3385C15.3043 31.4277 15.2297 31.5 15.1377 31.5H12.6884C12.5964 31.5 12.5217 31.4277 12.5217 31.3385V28.9658Z" fill="#F0F1F4"/>
<path d="M12.5217 0.661458C12.5217 0.572287 12.5964 0.5 12.6884 0.5H15.1377C15.2297 0.5 15.3043 0.572287 15.3043 0.661458V3.03419C15.3043 3.12336 15.2297 3.19565 15.1377 3.19565H12.6884C12.5964 3.19565 12.5217 3.12336 12.5217 3.03419V0.661458Z" fill="#F0F1F4"/>
<path d="M16.6957 4.70494C16.6957 4.61577 16.7703 4.54348 16.8623 4.54348H19.3116C19.4036 4.54348 19.4783 4.61577 19.4783 4.70494V7.07767C19.4783 7.16684 19.4036 7.23913 19.3116 7.23913H16.8623C16.7703 7.23913 16.6957 7.16684 16.6957 7.07767V4.70494Z" fill="#F0F1F4"/>
<path d="M16.6957 24.9223C16.6957 24.8332 16.7703 24.7609 16.8623 24.7609H19.3116C19.4036 24.7609 19.4783 24.8332 19.4783 24.9223V27.2951C19.4783 27.3842 19.4036 27.4565 19.3116 27.4565H16.8623C16.7703 27.4565 16.6957 27.3842 16.6957 27.2951V24.9223Z" fill="#F0F1F4"/>
<path d="M16.6957 28.9658C16.6957 28.8766 16.7703 28.8043 16.8623 28.8043H19.3116C19.4036 28.8043 19.4783 28.8766 19.4783 28.9658V31.3385C19.4783 31.4277 19.4036 31.5 19.3116 31.5H16.8623C16.7703 31.5 16.6957 31.4277 16.6957 31.3385V28.9658Z" fill="#F0F1F4"/>
<path d="M20.8696 28.9658C20.8696 28.8766 20.9442 28.8043 21.0362 28.8043H23.4855C23.5776 28.8043 23.6522 28.8766 23.6522 28.9658V31.3385C23.6522 31.4277 23.5776 31.5 23.4855 31.5H21.0362C20.9442 31.5 20.8696 31.4277 20.8696 31.3385V28.9658Z" fill="#F0F1F4"/>
<path d="M16.6957 0.661458C16.6957 0.572287 16.7703 0.5 16.8623 0.5H19.3116C19.4036 0.5 19.4783 0.572287 19.4783 0.661458V3.03419C19.4783 3.12336 19.4036 3.19565 19.3116 3.19565H16.8623C16.7703 3.19565 16.6957 3.12336 16.6957 3.03419V0.661458Z" fill="#F0F1F4"/>
<path d="M20.8696 4.70494C20.8696 4.61577 20.9442 4.54348 21.0362 4.54348H23.4855C23.5776 4.54348 23.6522 4.61577 23.6522 4.70494V7.07767C23.6522 7.16684 23.5776 7.23913 23.4855 7.23913H21.0362C20.9442 7.23913 20.8696 7.16684 20.8696 7.07767V4.70494Z" fill="#F0F1F4"/>
<path d="M20.8696 0.661458C20.8696 0.572287 20.9442 0.5 21.0362 0.5H23.4855C23.5776 0.5 23.6522 0.572287 23.6522 0.661458V3.03419C23.6522 3.12336 23.5776 3.19565 23.4855 3.19565H21.0362C20.9442 3.19565 20.8696 3.12336 20.8696 3.03419V0.661458Z" fill="#F0F1F4"/>
<path d="M25.0435 4.70494C25.0435 4.61577 25.1181 4.54348 25.2101 4.54348H27.6594C27.7515 4.54348 27.8261 4.61577 27.8261 4.70494V7.07767C27.8261 7.16684 27.7515 7.23913 27.6594 7.23913H25.2101C25.1181 7.23913 25.0435 7.16684 25.0435 7.07767V4.70494Z" fill="#F0F1F4"/>
</svg>
