<svg width="256" height="256" viewBox="0 0 256 256" fill="none" xmlns="http://www.w3.org/2000/svg">
<g clip-path="url(#clip0_11887_8121)">
<rect width="256" height="256" fill="#03050E"/>
<g filter="url(#filter0_f_11887_8121)">
<path d="M930 -370.956C930 -304.053 657.491 -260.641 491.191 -137.137C271.67 25.8931 143.39 266 143.39 266C143.39 266 41.6101 13.8208 -179.485 -140.592C-366.158 -270.965 -678 -299.899 -678 -370.956C-678 -526.172 -318.037 -652 126 -652C570.037 -652 930 -526.172 930 -370.956Z" fill="#020AFF"/>
</g>
<path d="M23 78.8764C23 78.2723 23.4897 77.7826 24.0938 77.7826H40.1671C40.7712 77.7826 41.2609 78.2723 41.2609 78.8764V94.9497C41.2609 95.5538 40.7712 96.0435 40.1671 96.0435H24.0937C23.4897 96.0435 23 95.5538 23 94.9497V78.8764Z" fill="#F0F1F4"/>
<path d="M23 106.268C23 105.664 23.4897 105.174 24.0938 105.174H40.1671C40.7712 105.174 41.2609 105.664 41.2609 106.268V122.341C41.2609 122.945 40.7712 123.435 40.1671 123.435H24.0937C23.4897 123.435 23 122.945 23 122.341V106.268Z" fill="#F0F1F4"/>
<path d="M23 133.659C23 133.055 23.4897 132.565 24.0938 132.565H40.1671C40.7712 132.565 41.2609 133.055 41.2609 133.659V149.732C41.2609 150.336 40.7712 150.826 40.1671 150.826H24.0937C23.4897 150.826 23 150.336 23 149.732V133.659Z" fill="#F0F1F4"/>
<path d="M23 161.05C23 160.446 23.4897 159.957 24.0938 159.957H40.1671C40.7712 159.957 41.2609 160.446 41.2609 161.05V177.124C41.2609 177.728 40.7712 178.217 40.1671 178.217H24.0937C23.4897 178.217 23 177.728 23 177.124V161.05Z" fill="#F0F1F4"/>
<path d="M50.3913 78.8764C50.3913 78.2723 50.881 77.7826 51.4851 77.7826H67.5584C68.1625 77.7826 68.6522 78.2723 68.6522 78.8764V94.9497C68.6522 95.5538 68.1625 96.0435 67.5584 96.0435H51.4851C50.881 96.0435 50.3913 95.5538 50.3913 94.9497V78.8764Z" fill="#F0F1F4"/>
<path d="M187.348 78.8764C187.348 78.2723 187.838 77.7826 188.442 77.7826H204.515C205.119 77.7826 205.609 78.2723 205.609 78.8764V94.9497C205.609 95.5538 205.119 96.0435 204.515 96.0435H188.442C187.838 96.0435 187.348 95.5538 187.348 94.9497V78.8764Z" fill="#F0F1F4"/>
<path d="M214.739 78.8764C214.739 78.2723 215.229 77.7826 215.833 77.7826H231.906C232.51 77.7826 233 78.2723 233 78.8764V94.9497C233 95.5538 232.51 96.0435 231.906 96.0435H215.833C215.229 96.0435 214.739 95.5538 214.739 94.9497V78.8764Z" fill="#F0F1F4"/>
<path d="M50.3913 106.268C50.3913 105.664 50.881 105.174 51.4851 105.174H67.5584C68.1625 105.174 68.6522 105.664 68.6522 106.268V122.341C68.6522 122.945 68.1625 123.435 67.5584 123.435H51.4851C50.881 123.435 50.3913 122.945 50.3913 122.341V106.268Z" fill="#F0F1F4"/>
<path d="M187.348 106.268C187.348 105.664 187.838 105.174 188.442 105.174H204.515C205.119 105.174 205.609 105.664 205.609 106.268V122.341C205.609 122.945 205.119 123.435 204.515 123.435H188.442C187.838 123.435 187.348 122.945 187.348 122.341V106.268Z" fill="#F0F1F4"/>
<path d="M214.739 106.268C214.739 105.664 215.229 105.174 215.833 105.174H231.906C232.51 105.174 233 105.664 233 106.268V122.341C233 122.945 232.51 123.435 231.906 123.435H215.833C215.229 123.435 214.739 122.945 214.739 122.341V106.268Z" fill="#F0F1F4"/>
<path d="M50.3913 133.659C50.3913 133.055 50.881 132.565 51.4851 132.565H67.5584C68.1625 132.565 68.6522 133.055 68.6522 133.659V149.732C68.6522 150.336 68.1625 150.826 67.5584 150.826H51.4851C50.881 150.826 50.3913 150.336 50.3913 149.732V133.659Z" fill="#F0F1F4"/>
<path d="M187.348 133.659C187.348 133.055 187.838 132.565 188.442 132.565H204.515C205.119 132.565 205.609 133.055 205.609 133.659V149.732C205.609 150.336 205.119 150.826 204.515 150.826H188.442C187.838 150.826 187.348 150.336 187.348 149.732V133.659Z" fill="#F0F1F4"/>
<path d="M214.739 133.659C214.739 133.055 215.229 132.565 215.833 132.565H231.906C232.51 132.565 233 133.055 233 133.659V149.732C233 150.336 232.51 150.826 231.906 150.826H215.833C215.229 150.826 214.739 150.336 214.739 149.732V133.659Z" fill="#F0F1F4"/>
<path d="M50.3913 161.05C50.3913 160.446 50.881 159.957 51.4851 159.957H67.5584C68.1625 159.957 68.6522 160.446 68.6522 161.05V177.124C68.6522 177.728 68.1625 178.217 67.5584 178.217H51.4851C50.881 178.217 50.3913 177.728 50.3913 177.124V161.05Z" fill="#F0F1F4"/>
<path d="M214.739 161.05C214.739 160.446 215.229 159.957 215.833 159.957H231.906C232.51 159.957 233 160.446 233 161.05V177.124C233 177.728 232.51 178.217 231.906 178.217H215.833C215.229 178.217 214.739 177.728 214.739 177.124V161.05Z" fill="#F0F1F4"/>
<path d="M50.3913 188.442C50.3913 187.838 50.881 187.348 51.4851 187.348H67.5584C68.1625 187.348 68.6522 187.838 68.6522 188.442V204.515C68.6522 205.119 68.1625 205.609 67.5584 205.609H51.4851C50.881 205.609 50.3913 205.119 50.3913 204.515V188.442Z" fill="#F0F1F4"/>
<path d="M187.348 188.442C187.348 187.838 187.838 187.348 188.442 187.348H204.515C205.119 187.348 205.609 187.838 205.609 188.442V204.515C205.609 205.119 205.119 205.609 204.515 205.609H188.442C187.838 205.609 187.348 205.119 187.348 204.515V188.442Z" fill="#F0F1F4"/>
<path d="M159.957 161.05C159.957 160.446 160.446 159.957 161.05 159.957H177.124C177.728 159.957 178.217 160.446 178.217 161.05V177.124C178.217 177.728 177.728 178.217 177.124 178.217H161.05C160.446 178.217 159.957 177.728 159.957 177.124V161.05Z" fill="#F0F1F4"/>
<path d="M132.565 133.659C132.565 133.055 133.055 132.565 133.659 132.565H149.732C150.336 132.565 150.826 133.055 150.826 133.659V149.732C150.826 150.336 150.336 150.826 149.732 150.826H133.659C133.055 150.826 132.565 150.336 132.565 149.732V133.659Z" fill="#F0F1F4"/>
<path d="M214.739 215.833C214.739 215.229 215.229 214.739 215.833 214.739H231.906C232.51 214.739 233 215.229 233 215.833V231.906C233 232.51 232.51 233 231.906 233H215.833C215.229 233 214.739 232.51 214.739 231.906V215.833Z" fill="#F0F1F4"/>
<path d="M50.3913 51.4851C50.3913 50.881 50.881 50.3913 51.4851 50.3913H67.5584C68.1625 50.3913 68.6522 50.881 68.6522 51.4851V67.5584C68.6522 68.1625 68.1625 68.6522 67.5584 68.6522H51.4851C50.881 68.6522 50.3913 68.1625 50.3913 67.5584V51.4851Z" fill="#F0F1F4"/>
<path d="M77.7826 51.4851C77.7826 50.881 78.2723 50.3913 78.8764 50.3913H94.9497C95.5538 50.3913 96.0435 50.881 96.0435 51.4851V67.5584C96.0435 68.1625 95.5538 68.6522 94.9497 68.6522H78.8764C78.2723 68.6522 77.7826 68.1625 77.7826 67.5584V51.4851Z" fill="#F0F1F4"/>
<path d="M77.7826 188.442C77.7826 187.838 78.2723 187.348 78.8764 187.348H94.9497C95.5538 187.348 96.0435 187.838 96.0435 188.442V204.515C96.0435 205.119 95.5538 205.609 94.9497 205.609H78.8764C78.2723 205.609 77.7826 205.119 77.7826 204.515V188.442Z" fill="#F0F1F4"/>
<path d="M77.7826 215.833C77.7826 215.229 78.2723 214.739 78.8764 214.739H94.9497C95.5538 214.739 96.0435 215.229 96.0435 215.833V231.906C96.0435 232.51 95.5538 233 94.9497 233H78.8764C78.2723 233 77.7826 232.51 77.7826 231.906V215.833Z" fill="#F0F1F4"/>
<path d="M77.7826 24.0937C77.7826 23.4897 78.2723 23 78.8764 23H94.9497C95.5538 23 96.0435 23.4897 96.0435 24.0938V40.1671C96.0435 40.7712 95.5538 41.2609 94.9497 41.2609H78.8764C78.2723 41.2609 77.7826 40.7712 77.7826 40.1671V24.0937Z" fill="#F0F1F4"/>
<path d="M105.174 51.4851C105.174 50.881 105.664 50.3913 106.268 50.3913H122.341C122.945 50.3913 123.435 50.881 123.435 51.4851V67.5584C123.435 68.1625 122.945 68.6522 122.341 68.6522H106.268C105.664 68.6522 105.174 68.1625 105.174 67.5584V51.4851Z" fill="#F0F1F4"/>
<path d="M105.174 188.442C105.174 187.838 105.664 187.348 106.268 187.348H122.341C122.945 187.348 123.435 187.838 123.435 188.442V204.515C123.435 205.119 122.945 205.609 122.341 205.609H106.268C105.664 205.609 105.174 205.119 105.174 204.515V188.442Z" fill="#F0F1F4"/>
<path d="M105.174 215.833C105.174 215.229 105.664 214.739 106.268 214.739H122.341C122.945 214.739 123.435 215.229 123.435 215.833V231.906C123.435 232.51 122.945 233 122.341 233H106.268C105.664 233 105.174 232.51 105.174 231.906V215.833Z" fill="#F0F1F4"/>
<path d="M105.174 24.0937C105.174 23.4897 105.664 23 106.268 23H122.341C122.945 23 123.435 23.4897 123.435 24.0938V40.1671C123.435 40.7712 122.945 41.2609 122.341 41.2609H106.268C105.664 41.2609 105.174 40.7712 105.174 40.1671V24.0937Z" fill="#F0F1F4"/>
<path d="M132.565 51.4851C132.565 50.881 133.055 50.3913 133.659 50.3913H149.732C150.336 50.3913 150.826 50.881 150.826 51.4851V67.5584C150.826 68.1625 150.336 68.6522 149.732 68.6522H133.659C133.055 68.6522 132.565 68.1625 132.565 67.5584V51.4851Z" fill="#F0F1F4"/>
<path d="M132.565 188.442C132.565 187.838 133.055 187.348 133.659 187.348H149.732C150.336 187.348 150.826 187.838 150.826 188.442V204.515C150.826 205.119 150.336 205.609 149.732 205.609H133.659C133.055 205.609 132.565 205.119 132.565 204.515V188.442Z" fill="#F0F1F4"/>
<path d="M132.565 215.833C132.565 215.229 133.055 214.739 133.659 214.739H149.732C150.336 214.739 150.826 215.229 150.826 215.833V231.906C150.826 232.51 150.336 233 149.732 233H133.659C133.055 233 132.565 232.51 132.565 231.906V215.833Z" fill="#F0F1F4"/>
<path d="M159.957 215.833C159.957 215.229 160.446 214.739 161.05 214.739H177.124C177.728 214.739 178.217 215.229 178.217 215.833V231.906C178.217 232.51 177.728 233 177.124 233H161.05C160.446 233 159.957 232.51 159.957 231.906V215.833Z" fill="#F0F1F4"/>
<path d="M132.565 24.0937C132.565 23.4897 133.055 23 133.659 23H149.732C150.336 23 150.826 23.4897 150.826 24.0938V40.1671C150.826 40.7712 150.336 41.2609 149.732 41.2609H133.659C133.055 41.2609 132.565 40.7712 132.565 40.1671V24.0937Z" fill="#F0F1F4"/>
<path d="M159.957 51.4851C159.957 50.881 160.446 50.3913 161.05 50.3913H177.124C177.728 50.3913 178.217 50.881 178.217 51.4851V67.5584C178.217 68.1625 177.728 68.6522 177.124 68.6522H161.05C160.446 68.6522 159.957 68.1625 159.957 67.5584V51.4851Z" fill="#F0F1F4"/>
<path d="M159.957 24.0937C159.957 23.4897 160.446 23 161.05 23H177.124C177.728 23 178.217 23.4897 178.217 24.0938V40.1671C178.217 40.7712 177.728 41.2609 177.124 41.2609H161.05C160.446 41.2609 159.957 40.7712 159.957 40.1671V24.0937Z" fill="#F0F1F4"/>
<path d="M187.348 51.4851C187.348 50.881 187.838 50.3913 188.442 50.3913H204.515C205.119 50.3913 205.609 50.881 205.609 51.4851V67.5584C205.609 68.1625 205.119 68.6522 204.515 68.6522H188.442C187.838 68.6522 187.348 68.1625 187.348 67.5584V51.4851Z" fill="#F0F1F4"/>
</g>
<defs>
<filter id="filter0_f_11887_8121" x="-1122" y="-1096" width="2496" height="1806" filterUnits="userSpaceOnUse" color-interpolation-filters="sRGB">
<feFlood flood-opacity="0" result="BackgroundImageFix"/>
<feBlend mode="normal" in="SourceGraphic" in2="BackgroundImageFix" result="shape"/>
<feGaussianBlur stdDeviation="222" result="effect1_foregroundBlur_11887_8121"/>
</filter>
<clipPath id="clip0_11887_8121">
<rect width="256" height="256" fill="white"/>
</clipPath>
</defs>
</svg>
