<svg width="356" height="147" viewBox="0 0 356 147" fill="none" xmlns="http://www.w3.org/2000/svg">
<path d="M67.2273 29.2004C67.2273 28.9042 67.4674 28.6641 67.7637 28.6641H75.6463C75.9425 28.6641 76.1827 28.9042 76.1827 29.2004V37.0832C76.1827 37.3795 75.9425 37.6196 75.6463 37.6196H67.7637C67.4674 37.6196 67.2273 37.3795 67.2273 37.0832V29.2004Z" fill="#F0F1F4"/>
<path d="M67.2273 42.9441C67.2273 42.6479 67.4674 42.4077 67.7637 42.4077H75.6463C75.9425 42.4077 76.1827 42.6479 76.1827 42.9441V50.8268C76.1827 51.123 75.9425 51.3632 75.6463 51.3632H67.7637C67.4674 51.3632 67.2273 51.123 67.2273 50.8268V42.9441Z" fill="#F0F1F4"/>
<path d="M67.2273 57.4973C67.2273 57.2011 67.4674 56.9609 67.7637 56.9609H75.6463C75.9425 56.9609 76.1827 57.2011 76.1827 57.4973V65.38C76.1827 65.6763 75.9425 65.9164 75.6463 65.9164H67.7637C67.4674 65.9164 67.2273 65.6763 67.2273 65.38V57.4973Z" fill="#F0F1F4"/>
<path d="M67.2273 70.9314C67.2273 70.6352 67.4674 70.395 67.7637 70.395H75.6463C75.9425 70.395 76.1827 70.6352 76.1827 70.9314V78.8141C76.1827 79.1103 75.9425 79.3505 75.6463 79.3505H67.7637C67.4674 79.3505 67.2273 79.1103 67.2273 78.8141V70.9314Z" fill="#F0F1F4"/>
<path d="M80.6602 29.2004C80.6602 28.9042 80.9003 28.6641 81.1966 28.6641H89.0791C89.3754 28.6641 89.6155 28.9042 89.6155 29.2004V37.0832C89.6155 37.3795 89.3754 37.6196 89.0791 37.6196H81.1966C80.9003 37.6196 80.6602 37.3795 80.6602 37.0832V29.2004Z" fill="#F0F1F4"/>
<path d="M80.4736 42.9441C80.4736 42.6479 80.7138 42.4077 81.01 42.4077H88.8926C89.1889 42.4077 89.429 42.6479 89.429 42.9441V50.8268C89.429 51.123 89.1889 51.3632 88.8926 51.3632H81.01C80.7138 51.3632 80.4736 51.123 80.4736 50.8268V42.9441Z" fill="#F0F1F4"/>
<path d="M80.6602 57.4973C80.6602 57.2011 80.9003 56.9609 81.1966 56.9609H89.0791C89.3754 56.9609 89.6155 57.2011 89.6155 57.4973V65.38C89.6155 65.6763 89.3754 65.9164 89.0791 65.9164H81.1966C80.9003 65.9164 80.6602 65.6763 80.6602 65.38V57.4973Z" fill="#F0F1F4"/>
<path d="M80.6602 70.9314C80.6602 70.6352 80.9003 70.395 81.1966 70.395H89.0791C89.3754 70.395 89.6155 70.6352 89.6155 70.9314V78.8141C89.6155 79.1103 89.3754 79.3505 89.0791 79.3505H81.1966C80.9003 79.3505 80.6602 79.1103 80.6602 78.8141V70.9314Z" fill="#F0F1F4"/>
<path d="M67.2273 83.866C67.2273 83.5697 67.4674 83.3296 67.7637 83.3296H75.6463C75.9425 83.3296 76.1827 83.5697 76.1827 83.866V91.7486C76.1827 92.0449 75.9425 92.285 75.6463 92.285H67.7637C67.4674 92.285 67.2273 92.0449 67.2273 91.7486V83.866Z" fill="#F0F1F4"/>
<path d="M67.2273 124.475C67.2273 124.179 67.4674 123.939 67.7637 123.939H75.6463C75.9425 123.939 76.1827 124.179 76.1827 124.475V132.358C76.1827 132.654 75.9425 132.894 75.6463 132.894H67.7637C67.4674 132.894 67.2273 132.654 67.2273 132.358V124.475Z" fill="#F0F1F4"/>
<path d="M80.6602 83.866C80.6602 83.5697 80.9003 83.3296 81.1966 83.3296H89.0791C89.3754 83.3296 89.6155 83.5697 89.6155 83.866V91.7486C89.6155 92.0449 89.3754 92.285 89.0791 92.285H81.1966C80.9003 92.285 80.6602 92.0449 80.6602 91.7486V83.866Z" fill="#F0F1F4"/>
<path d="M80.6602 124.475C80.6602 124.179 80.9003 123.939 81.1966 123.939H89.0791C89.3754 123.939 89.6155 124.179 89.6155 124.475V132.358C89.6155 132.654 89.3754 132.894 89.0791 132.894H81.1966C80.9003 132.894 80.6602 132.654 80.6602 132.358V124.475Z" fill="#F0F1F4"/>
<path d="M67.2273 138.218C67.2273 137.922 67.4674 137.682 67.7637 137.682H75.6463C75.9425 137.682 76.1827 137.922 76.1827 138.218V146.101C76.1827 146.397 75.9425 146.637 75.6463 146.637H67.7637C67.4674 146.637 67.2273 146.397 67.2273 146.101V138.218Z" fill="#F0F1F4"/>
<path d="M80.6602 138.218C80.6602 137.922 80.9003 137.682 81.1966 137.682H89.0791C89.3754 137.682 89.6155 137.922 89.6155 138.218V146.101C89.6155 146.397 89.3754 146.637 89.0791 146.637H81.1966C80.9003 146.637 80.6602 146.397 80.6602 146.101V138.218Z" fill="#F0F1F4"/>
<path d="M40.6096 97.2981C40.6096 97.0019 40.8498 96.7617 41.146 96.7617H49.0286C49.3248 96.7617 49.565 97.0019 49.565 97.2981V105.181C49.565 105.477 49.3248 105.717 49.0286 105.717H41.146C40.8498 105.717 40.6096 105.477 40.6096 105.181V97.2981Z" fill="#F0F1F4"/>
<path d="M40.6096 111.602C40.6096 111.306 40.8498 111.065 41.146 111.065H49.0286C49.3248 111.065 49.565 111.306 49.565 111.602V119.484C49.565 119.781 49.3248 120.021 49.0286 120.021H41.146C40.8498 120.021 40.6096 119.781 40.6096 119.484V111.602Z" fill="#F0F1F4"/>
<path d="M27.177 111.602C27.177 111.306 27.4172 111.065 27.7134 111.065H35.596C35.8922 111.065 36.1324 111.306 36.1324 111.602V119.484C36.1324 119.781 35.8922 120.021 35.596 120.021H27.7134C27.4172 120.021 27.177 119.781 27.177 119.484V111.602Z" fill="#F0F1F4"/>
<path d="M80.6602 15.7674C80.6602 15.4711 80.9003 15.231 81.1966 15.231H89.0791C89.3754 15.231 89.6155 15.4711 89.6155 15.7674V23.65C89.6155 23.9462 89.3754 24.1864 89.0791 24.1864H81.1966C80.9003 24.1864 80.6602 23.9462 80.6602 23.65V15.7674Z" fill="#F0F1F4"/>
<path d="M80.6602 1.46365C80.6602 1.16742 80.9003 0.927246 81.1966 0.927246H89.0791C89.3754 0.927246 89.6155 1.16742 89.6155 1.46365V9.34629C89.6155 9.64253 89.3754 9.88267 89.0791 9.88267H81.1966C80.9003 9.88267 80.6602 9.64253 80.6602 9.34629V1.46365Z" fill="#F0F1F4"/>
<path d="M54.0432 97.2981C54.0432 97.0019 54.2834 96.7617 54.5796 96.7617H62.4623C62.7586 96.7617 62.9987 97.0019 62.9987 97.2981V105.181C62.9987 105.477 62.7586 105.717 62.4623 105.717H54.5796C54.2834 105.717 54.0432 105.477 54.0432 105.181V97.2981Z" fill="#F0F1F4"/>
<path d="M27.177 97.2981C27.177 97.0019 27.4171 96.7617 27.7134 96.7617H35.5961C35.8924 96.7617 36.1325 97.0019 36.1325 97.2981V105.181C36.1325 105.477 35.8924 105.717 35.5961 105.717H27.7134C27.4171 105.717 27.177 105.477 27.177 105.181V97.2981Z" fill="#F0F1F4"/>
<path d="M13.4326 97.2981C13.4326 97.0019 13.6728 96.7617 13.969 96.7617H21.8516C22.1478 96.7617 22.388 97.0019 22.388 97.2981V105.181C22.388 105.477 22.1478 105.717 21.8516 105.717H13.969C13.6728 105.717 13.4326 105.477 13.4326 105.181V97.2981Z" fill="#F0F1F4"/>
<path d="M13.4326 111.602C13.4326 111.306 13.6728 111.065 13.969 111.065H21.8516C22.1478 111.065 22.388 111.306 22.388 111.602V119.484C22.388 119.781 22.1478 120.021 21.8516 120.021H13.969C13.6728 120.021 13.4326 119.781 13.4326 119.484V111.602Z" fill="#F0F1F4"/>
<path d="M0 97.2981C0 97.0019 0.240144 96.7617 0.536373 96.7617H8.41909C8.71535 96.7617 8.95549 97.0019 8.95549 97.2981V105.181C8.95549 105.477 8.71535 105.717 8.41909 105.717H0.536373C0.240144 105.717 0 105.477 0 105.181V97.2981Z" fill="#F0F1F4"/>
<path d="M14.3037 70.1214C14.3037 69.8251 14.5439 69.585 14.8401 69.585H22.7228C23.0191 69.585 23.2592 69.8251 23.2592 70.1214V78.004C23.2592 78.3003 23.0191 78.5404 22.7228 78.5404H14.8401C14.5439 78.5404 14.3037 78.3003 14.3037 78.004V70.1214Z" fill="#F0F1F4"/>
<path d="M0 84.4251C0 84.1288 0.240144 83.8887 0.536373 83.8887H8.41909C8.71535 83.8887 8.95549 84.1288 8.95549 84.4251V92.3077C8.95549 92.604 8.71535 92.8441 8.41909 92.8441H0.536373C0.240144 92.8441 0 92.604 0 92.3077V84.4251Z" fill="#F0F1F4"/>
<path d="M27.177 57.2478C27.177 56.9516 27.4171 56.7114 27.7134 56.7114H35.5961C35.8924 56.7114 36.1325 56.9516 36.1325 57.2478V65.1305C36.1325 65.4267 35.8924 65.6669 35.5961 65.6669H27.7134C27.4171 65.6669 27.177 65.4267 27.177 65.1305V57.2478Z" fill="#F0F1F4"/>
<path d="M40.0503 42.9441C40.0503 42.6479 40.2904 42.4077 40.5867 42.4077H48.4694C48.7656 42.4077 49.0058 42.6479 49.0058 42.9441V50.8268C49.0058 51.123 48.7656 51.3632 48.4694 51.3632H40.5867C40.2904 51.3632 40.0503 51.123 40.0503 50.8268V42.9441Z" fill="#F0F1F4"/>
<path d="M54.354 28.6404C54.354 28.3441 54.5941 28.104 54.8904 28.104H62.7731C63.0694 28.104 63.3095 28.3441 63.3095 28.6404V36.5231C63.3095 36.8193 63.0694 37.0595 62.7731 37.0595H54.8904C54.5941 37.0595 54.354 36.8193 54.354 36.5231V28.6404Z" fill="#F0F1F4"/>
<path d="M67.2273 15.7674C67.2273 15.4711 67.4674 15.231 67.7637 15.231H75.6464C75.9426 15.231 76.1828 15.4711 76.1828 15.7674V23.65C76.1828 23.9463 75.9426 24.1864 75.6464 24.1864H67.7637C67.4674 24.1864 67.2273 23.9463 67.2273 23.65V15.7674Z" fill="#F0F1F4"/>
<path d="M14.3037 84.4251C14.3037 84.1288 14.5439 83.8887 14.8401 83.8887H22.7228C23.0191 83.8887 23.2592 84.1288 23.2592 84.4251V92.3077C23.2592 92.604 23.0191 92.8441 22.7228 92.8441H14.8401C14.5439 92.8441 14.3037 92.604 14.3037 92.3077V84.4251Z" fill="#F0F1F4"/>
<path d="M27.177 70.1214C27.177 69.8251 27.4171 69.585 27.7134 69.585H35.5961C35.8924 69.585 36.1325 69.8251 36.1325 70.1214V78.004C36.1325 78.3003 35.8924 78.5404 35.5961 78.5404H27.7134C27.4171 78.5404 27.177 78.3003 27.177 78.004V70.1214Z" fill="#F0F1F4"/>
<path d="M40.0503 57.2478C40.0503 56.9516 40.2904 56.7114 40.5867 56.7114H48.4694C48.7656 56.7114 49.0058 56.9516 49.0058 57.2478V65.1305C49.0058 65.4267 48.7656 65.6669 48.4694 65.6669H40.5867C40.2904 65.6669 40.0503 65.4267 40.0503 65.1305V57.2478Z" fill="#F0F1F4"/>
<path d="M54.354 42.9441C54.354 42.6479 54.5941 42.4077 54.8904 42.4077H62.7731C63.0694 42.4077 63.3095 42.6479 63.3095 42.9441V50.8268C63.3095 51.123 63.0694 51.3632 62.7731 51.3632H54.8904C54.5941 51.3632 54.354 51.123 54.354 50.8268V42.9441Z" fill="#F0F1F4"/>
<path d="M54.0432 111.602C54.0432 111.306 54.2834 111.065 54.5796 111.065H62.4623C62.7586 111.065 62.9987 111.306 62.9987 111.602V119.484C62.9987 119.781 62.7586 120.021 62.4623 120.021H54.5796C54.2834 120.021 54.0432 119.781 54.0432 119.484V111.602Z" fill="#F0F1F4"/>
<path d="M67.4758 97.2981C67.4758 97.0019 67.716 96.7617 68.0122 96.7617H75.8948C76.1911 96.7617 76.4312 97.0019 76.4312 97.2981V105.181C76.4312 105.477 76.1911 105.717 75.8948 105.717H68.0122C67.716 105.717 67.4758 105.477 67.4758 105.181V97.2981Z" fill="#F0F1F4"/>
<path d="M67.4758 111.602C67.4758 111.306 67.716 111.065 68.0122 111.065H75.8948C76.1911 111.065 76.4312 111.306 76.4312 111.602V119.484C76.4312 119.781 76.1911 120.021 75.8948 120.021H68.0122C67.716 120.021 67.4758 119.781 67.4758 119.484V111.602Z" fill="#F0F1F4"/>
<path d="M80.9094 97.2981C80.9094 97.0019 81.1496 96.7617 81.4458 96.7617H89.3284C89.6247 96.7617 89.8648 97.0019 89.8648 97.2981V105.181C89.8648 105.477 89.6247 105.717 89.3284 105.717H81.4458C81.1496 105.717 80.9094 105.477 80.9094 105.181V97.2981Z" fill="#F0F1F4"/>
<path d="M94.4043 97.2981C94.4043 97.0019 94.6444 96.7617 94.9407 96.7617H102.823C103.12 96.7617 103.36 97.0019 103.36 97.2981V105.181C103.36 105.477 103.12 105.717 102.823 105.717H94.9407C94.6444 105.717 94.4043 105.477 94.4043 105.181V97.2981Z" fill="#F0F1F4"/>
<path d="M80.9094 111.602C80.9094 111.306 81.1496 111.065 81.4458 111.065H89.3284C89.6247 111.065 89.8648 111.306 89.8648 111.602V119.484C89.8648 119.781 89.6247 120.021 89.3284 120.021H81.4458C81.1496 120.021 80.9094 119.781 80.9094 119.484V111.602Z" fill="#F0F1F4"/>
<path d="M94.342 111.602C94.342 111.306 94.5822 111.065 94.8784 111.065H102.761C103.057 111.065 103.297 111.306 103.297 111.602V119.484C103.297 119.781 103.057 120.021 102.761 120.021H94.8784C94.5822 120.021 94.342 119.781 94.342 119.484V111.602Z" fill="#F0F1F4"/>
<path d="M126.246 31.4998C126.246 31.2035 126.486 30.9634 126.782 30.9634H134.665C134.961 30.9634 135.201 31.2035 135.201 31.4998V39.3825C135.201 39.6788 134.961 39.9189 134.665 39.9189H126.782C126.486 39.9189 126.246 39.6788 126.246 39.3825V31.4998Z" fill="#F0F1F4"/>
<path d="M126.246 44.9324C126.246 44.6361 126.486 44.396 126.782 44.396H134.665C134.961 44.396 135.201 44.6361 135.201 44.9324V52.815C135.201 53.1113 134.961 53.3515 134.665 53.3515H126.782C126.486 53.3515 126.246 53.1113 126.246 52.815V44.9324Z" fill="#F0F1F4"/>
<path d="M126.246 58.366C126.246 58.0697 126.486 57.8296 126.782 57.8296H134.665C134.961 57.8296 135.201 58.0697 135.201 58.366V66.2486C135.201 66.5449 134.961 66.785 134.665 66.785H126.782C126.486 66.785 126.246 66.5449 126.246 66.2486V58.366Z" fill="#F0F1F4"/>
<path d="M126.246 71.8001C126.246 71.5038 126.486 71.2637 126.782 71.2637H134.665C134.961 71.2637 135.201 71.5038 135.201 71.8001V79.6827C135.201 79.979 134.961 80.2191 134.665 80.2191H126.782C126.486 80.2191 126.246 79.979 126.246 79.6827V71.8001Z" fill="#F0F1F4"/>
<path d="M139.678 31.4998C139.678 31.2035 139.919 30.9634 140.215 30.9634H148.097C148.394 30.9634 148.634 31.2035 148.634 31.4998V39.3825C148.634 39.6788 148.394 39.9189 148.097 39.9189H140.215C139.919 39.9189 139.678 39.6788 139.678 39.3825V31.4998Z" fill="#F0F1F4"/>
<path d="M206.844 31.4998C206.844 31.2035 207.084 30.9634 207.38 30.9634H215.263C215.559 30.9634 215.799 31.2035 215.799 31.4998V39.3825C215.799 39.6788 215.559 39.9189 215.263 39.9189H207.38C207.084 39.9189 206.844 39.6788 206.844 39.3825V31.4998Z" fill="#F0F1F4"/>
<path d="M220.277 31.4998C220.277 31.2035 220.517 30.9634 220.814 30.9634H228.696C228.992 30.9634 229.232 31.2035 229.232 31.4998V39.3825C229.232 39.6788 228.992 39.9189 228.696 39.9189H220.814C220.517 39.9189 220.277 39.6788 220.277 39.3825V31.4998Z" fill="#F0F1F4"/>
<path d="M139.678 44.9324C139.678 44.6361 139.919 44.396 140.215 44.396H148.097C148.394 44.396 148.634 44.6361 148.634 44.9324V52.815C148.634 53.1113 148.394 53.3515 148.097 53.3515H140.215C139.919 53.3515 139.678 53.1113 139.678 52.815V44.9324Z" fill="#F0F1F4"/>
<path d="M206.844 44.9324C206.844 44.6361 207.084 44.396 207.38 44.396H215.263C215.559 44.396 215.799 44.6361 215.799 44.9324V52.815C215.799 53.1113 215.559 53.3515 215.263 53.3515H207.38C207.084 53.3515 206.844 53.1113 206.844 52.815V44.9324Z" fill="#F0F1F4"/>
<path d="M220.277 44.9324C220.277 44.6361 220.517 44.396 220.814 44.396H228.696C228.992 44.396 229.232 44.6361 229.232 44.9324V52.815C229.232 53.1113 228.992 53.3515 228.696 53.3515H220.814C220.517 53.3515 220.277 53.1113 220.277 52.815V44.9324Z" fill="#F0F1F4"/>
<path d="M139.678 58.366C139.678 58.0697 139.919 57.8296 140.215 57.8296H148.097C148.394 57.8296 148.634 58.0697 148.634 58.366V66.2486C148.634 66.5449 148.394 66.785 148.097 66.785H140.215C139.919 66.785 139.678 66.5449 139.678 66.2486V58.366Z" fill="#F0F1F4"/>
<path d="M206.844 58.366C206.844 58.0697 207.084 57.8296 207.38 57.8296H215.263C215.559 57.8296 215.799 58.0697 215.799 58.366V66.2486C215.799 66.5449 215.559 66.785 215.263 66.785H207.38C207.084 66.785 206.844 66.5449 206.844 66.2486V58.366Z" fill="#F0F1F4"/>
<path d="M206.844 71.8616C206.844 71.5653 207.084 71.3252 207.38 71.3252H215.263C215.559 71.3252 215.799 71.5653 215.799 71.8616V79.7442C215.799 80.0405 215.559 80.2807 215.263 80.2807H207.38C207.084 80.2807 206.844 80.0405 206.844 79.7442V71.8616Z" fill="#F0F1F4"/>
<path d="M220.277 58.366C220.277 58.0697 220.517 57.8296 220.814 57.8296H228.696C228.992 57.8296 229.232 58.0697 229.232 58.366V66.2486C229.232 66.5449 228.992 66.785 228.696 66.785H220.814C220.517 66.785 220.277 66.5449 220.277 66.2486V58.366Z" fill="#F0F1F4"/>
<path d="M139.678 71.8001C139.678 71.5038 139.919 71.2637 140.215 71.2637H148.097C148.394 71.2637 148.634 71.5038 148.634 71.8001V79.6827C148.634 79.979 148.394 80.2191 148.097 80.2191H140.215C139.919 80.2191 139.678 79.979 139.678 79.6827V71.8001Z" fill="#F0F1F4"/>
<path d="M220.277 71.8001C220.277 71.5038 220.517 71.2637 220.814 71.2637H228.696C228.992 71.2637 229.232 71.5038 229.232 71.8001V79.6827C229.232 79.979 228.992 80.2191 228.696 80.2191H220.814C220.517 80.2191 220.277 79.979 220.277 79.6827V71.8001Z" fill="#F0F1F4"/>
<path d="M126.246 84.7351C126.246 84.4389 126.486 84.1987 126.782 84.1987H134.665C134.961 84.1987 135.201 84.4389 135.201 84.7351V92.6178C135.201 92.914 134.961 93.1542 134.665 93.1542H126.782C126.486 93.1542 126.246 92.914 126.246 92.6178V84.7351Z" fill="#F0F1F4"/>
<path d="M126.246 98.1692C126.246 97.873 126.486 97.6328 126.782 97.6328H134.665C134.961 97.6328 135.201 97.873 135.201 98.1692V106.052C135.201 106.348 134.961 106.588 134.665 106.588H126.782C126.486 106.588 126.246 106.348 126.246 106.052V98.1692Z" fill="#F0F1F4"/>
<path d="M139.678 84.7351C139.678 84.4389 139.919 84.1987 140.215 84.1987H148.097C148.394 84.1987 148.634 84.4389 148.634 84.7351V92.6178C148.634 92.914 148.394 93.1542 148.097 93.1542H140.215C139.919 93.1542 139.678 92.914 139.678 92.6178V84.7351Z" fill="#F0F1F4"/>
<path d="M206.844 84.7351C206.844 84.4389 207.084 84.1987 207.38 84.1987H215.263C215.559 84.1987 215.799 84.4389 215.799 84.7351V92.6178C215.799 92.914 215.559 93.1542 215.263 93.1542H207.38C207.084 93.1542 206.844 92.914 206.844 92.6178V84.7351Z" fill="#F0F1F4"/>
<path d="M206.844 98.2307C206.844 97.9345 207.084 97.6943 207.38 97.6943H215.263C215.559 97.6943 215.799 97.9345 215.799 98.2307V106.113C215.799 106.41 215.559 106.65 215.263 106.65H207.38C207.084 106.65 206.844 106.41 206.844 106.113V98.2307Z" fill="#F0F1F4"/>
<path d="M220.277 84.7351C220.277 84.4389 220.517 84.1987 220.814 84.1987H228.696C228.992 84.1987 229.232 84.4389 229.232 84.7351V92.6178C229.232 92.914 228.992 93.1542 228.696 93.1542H220.814C220.517 93.1542 220.277 92.914 220.277 92.6178V84.7351Z" fill="#F0F1F4"/>
<path d="M139.678 98.1692C139.678 97.873 139.919 97.6328 140.215 97.6328H148.097C148.394 97.6328 148.634 97.873 148.634 98.1692V106.052C148.634 106.348 148.394 106.588 148.097 106.588H140.215C139.919 106.588 139.678 106.348 139.678 106.052V98.1692Z" fill="#F0F1F4"/>
<path d="M220.277 98.1692C220.277 97.873 220.517 97.6328 220.814 97.6328H228.696C228.992 97.6328 229.232 97.873 229.232 98.1692V106.052C229.232 106.348 228.992 106.588 228.696 106.588H220.814C220.517 106.588 220.277 106.348 220.277 106.052V98.1692Z" fill="#F0F1F4"/>
<path d="M126.246 111.912C126.246 111.616 126.486 111.375 126.782 111.375H134.665C134.961 111.375 135.201 111.616 135.201 111.912V119.795C135.201 120.091 134.961 120.331 134.665 120.331H126.782C126.486 120.331 126.246 120.091 126.246 119.795V111.912Z" fill="#F0F1F4"/>
<path d="M206.844 111.973C206.844 111.677 207.084 111.437 207.38 111.437H215.263C215.559 111.437 215.799 111.677 215.799 111.973V119.856C215.799 120.152 215.559 120.392 215.263 120.392H207.38C207.084 120.392 206.844 120.152 206.844 119.856V111.973Z" fill="#F0F1F4"/>
<path d="M206.844 124.785C206.844 124.489 207.084 124.249 207.38 124.249H215.263C215.559 124.249 215.799 124.489 215.799 124.785V132.668C215.799 132.964 215.559 133.204 215.263 133.204H207.38C207.084 133.204 206.844 132.964 206.844 132.668V124.785Z" fill="#F0F1F4"/>
<path d="M139.678 111.912C139.678 111.616 139.919 111.375 140.215 111.375H148.097C148.394 111.375 148.634 111.616 148.634 111.912V119.795C148.634 120.091 148.394 120.331 148.097 120.331H140.215C139.919 120.331 139.678 120.091 139.678 119.795V111.912Z" fill="#F0F1F4"/>
<path d="M220.277 111.912C220.277 111.616 220.517 111.375 220.814 111.375H228.696C228.992 111.375 229.232 111.616 229.232 111.912V119.795C229.232 120.091 228.992 120.331 228.696 120.331H220.814C220.517 120.331 220.277 120.091 220.277 119.795V111.912Z" fill="#F0F1F4"/>
<path d="M139.678 124.785C139.678 124.489 139.919 124.249 140.215 124.249H148.097C148.394 124.249 148.634 124.489 148.634 124.785V132.668C148.634 132.964 148.394 133.204 148.097 133.204H140.215C139.919 133.204 139.678 132.964 139.678 132.668V124.785Z" fill="#F0F1F4"/>
<path d="M139.678 18.0662C139.678 17.77 139.919 17.5298 140.215 17.5298H148.097C148.394 17.5298 148.634 17.77 148.634 18.0662V25.9488C148.634 26.2451 148.394 26.4852 148.097 26.4852H140.215C139.919 26.4852 139.678 26.2451 139.678 25.9488V18.0662Z" fill="#F0F1F4"/>
<path d="M153.112 18.0662C153.112 17.77 153.352 17.5298 153.648 17.5298H161.531C161.827 17.5298 162.068 17.77 162.068 18.0662V25.9488C162.068 26.2451 161.827 26.4852 161.531 26.4852H153.648C153.352 26.4852 153.112 26.2451 153.112 25.9488V18.0662Z" fill="#F0F1F4"/>
<path d="M153.112 124.785C153.112 124.489 153.352 124.249 153.648 124.249H161.531C161.827 124.249 162.068 124.489 162.068 124.785V132.668C162.068 132.964 161.827 133.204 161.531 133.204H153.648C153.352 133.204 153.112 132.964 153.112 132.668V124.785Z" fill="#F0F1F4"/>
<path d="M153.112 138.218C153.112 137.922 153.352 137.682 153.648 137.682H161.531C161.827 137.682 162.068 137.922 162.068 138.218V146.101C162.068 146.397 161.827 146.637 161.531 146.637H153.648C153.352 146.637 153.112 146.397 153.112 146.101V138.218Z" fill="#F0F1F4"/>
<path d="M153.112 4.63356C153.112 4.33732 153.352 4.09717 153.648 4.09717H161.531C161.827 4.09717 162.068 4.33732 162.068 4.63356V12.5162C162.068 12.8124 161.827 13.0526 161.531 13.0526H153.648C153.352 13.0526 153.112 12.8124 153.112 12.5162V4.63356Z" fill="#F0F1F4"/>
<path d="M166.545 18.0662C166.545 17.77 166.785 17.5298 167.081 17.5298H174.964C175.26 17.5298 175.5 17.77 175.5 18.0662V25.9488C175.5 26.2451 175.26 26.4852 174.964 26.4852H167.081C166.785 26.4852 166.545 26.2451 166.545 25.9488V18.0662Z" fill="#F0F1F4"/>
<path d="M166.545 124.785C166.545 124.489 166.785 124.249 167.081 124.249H174.964C175.26 124.249 175.5 124.489 175.5 124.785V132.668C175.5 132.964 175.26 133.204 174.964 133.204H167.081C166.785 133.204 166.545 132.964 166.545 132.668V124.785Z" fill="#F0F1F4"/>
<path d="M166.545 138.218C166.545 137.922 166.785 137.682 167.081 137.682H174.964C175.26 137.682 175.5 137.922 175.5 138.218V146.101C175.5 146.397 175.26 146.637 174.964 146.637H167.081C166.785 146.637 166.545 146.397 166.545 146.101V138.218Z" fill="#F0F1F4"/>
<path d="M166.545 4.63356C166.545 4.33732 166.785 4.09717 167.081 4.09717H174.964C175.26 4.09717 175.5 4.33732 175.5 4.63356V12.5162C175.5 12.8124 175.26 13.0526 174.964 13.0526H167.081C166.785 13.0526 166.545 12.8124 166.545 12.5162V4.63356Z" fill="#F0F1F4"/>
<path d="M179.978 18.0662C179.978 17.77 180.218 17.5298 180.515 17.5298H188.397C188.694 17.5298 188.934 17.77 188.934 18.0662V25.9488C188.934 26.2451 188.694 26.4852 188.397 26.4852H180.515C180.218 26.4852 179.978 26.2451 179.978 25.9488V18.0662Z" fill="#F0F1F4"/>
<path d="M179.978 124.785C179.978 124.489 180.218 124.249 180.515 124.249H188.397C188.694 124.249 188.934 124.489 188.934 124.785V132.668C188.934 132.964 188.694 133.204 188.397 133.204H180.515C180.218 133.204 179.978 132.964 179.978 132.668V124.785Z" fill="#F0F1F4"/>
<path d="M193.473 124.785C193.473 124.489 193.713 124.249 194.01 124.249H201.892C202.188 124.249 202.429 124.489 202.429 124.785V132.668C202.429 132.964 202.188 133.204 201.892 133.204H194.01C193.713 133.204 193.473 132.964 193.473 132.668V124.785Z" fill="#F0F1F4"/>
<path d="M179.978 138.218C179.978 137.922 180.218 137.682 180.515 137.682H188.397C188.694 137.682 188.934 137.922 188.934 138.218V146.101C188.934 146.397 188.694 146.637 188.397 146.637H180.515C180.218 146.637 179.978 146.397 179.978 146.101V138.218Z" fill="#F0F1F4"/>
<path d="M193.411 138.218C193.411 137.922 193.651 137.682 193.947 137.682H201.83C202.126 137.682 202.366 137.922 202.366 138.218V146.101C202.366 146.397 202.126 146.637 201.83 146.637H193.947C193.651 146.637 193.411 146.397 193.411 146.101V138.218Z" fill="#F0F1F4"/>
<path d="M179.978 4.63356C179.978 4.33732 180.218 4.09717 180.515 4.09717H188.397C188.694 4.09717 188.934 4.33732 188.934 4.63356V12.5162C188.934 12.8124 188.694 13.0526 188.397 13.0526H180.515C180.218 13.0526 179.978 12.8124 179.978 12.5162V4.63356Z" fill="#F0F1F4"/>
<path d="M193.411 18.0662C193.411 17.77 193.651 17.5298 193.947 17.5298H201.83C202.126 17.5298 202.366 17.77 202.366 18.0662V25.9488C202.366 26.2451 202.126 26.4852 201.83 26.4852H193.947C193.651 26.4852 193.411 26.2451 193.411 25.9488V18.0662Z" fill="#F0F1F4"/>
<path d="M193.411 4.63356C193.411 4.33732 193.651 4.09717 193.947 4.09717H201.83C202.126 4.09717 202.366 4.33732 202.366 4.63356V12.5162C202.366 12.8124 202.126 13.0526 201.83 13.0526H193.947C193.651 13.0526 193.411 12.8124 193.411 12.5162V4.63356Z" fill="#F0F1F4"/>
<path d="M206.844 18.0662C206.844 17.77 207.084 17.5298 207.38 17.5298H215.263C215.559 17.5298 215.799 17.77 215.799 18.0662V25.9488C215.799 26.2451 215.559 26.4852 215.263 26.4852H207.38C207.084 26.4852 206.844 26.2451 206.844 25.9488V18.0662Z" fill="#F0F1F4"/>
<path d="M319.345 29.2004C319.345 28.9042 319.586 28.6641 319.882 28.6641H327.764C328.061 28.6641 328.301 28.9042 328.301 29.2004V37.0832C328.301 37.3795 328.061 37.6196 327.764 37.6196H319.882C319.586 37.6196 319.345 37.3795 319.345 37.0832V29.2004Z" fill="#F0F1F4"/>
<path d="M319.345 42.9441C319.345 42.6479 319.586 42.4077 319.882 42.4077H327.764C328.061 42.4077 328.301 42.6479 328.301 42.9441V50.8268C328.301 51.123 328.061 51.3632 327.764 51.3632H319.882C319.586 51.3632 319.345 51.123 319.345 50.8268V42.9441Z" fill="#F0F1F4"/>
<path d="M319.345 57.4973C319.345 57.2011 319.586 56.9609 319.882 56.9609H327.764C328.061 56.9609 328.301 57.2011 328.301 57.4973V65.38C328.301 65.6763 328.061 65.9164 327.764 65.9164H319.882C319.586 65.9164 319.345 65.6763 319.345 65.38V57.4973Z" fill="#F0F1F4"/>
<path d="M319.345 70.9314C319.345 70.6352 319.586 70.395 319.882 70.395H327.764C328.061 70.395 328.301 70.6352 328.301 70.9314V78.8141C328.301 79.1103 328.061 79.3505 327.764 79.3505H319.882C319.586 79.3505 319.345 79.1103 319.345 78.8141V70.9314Z" fill="#F0F1F4"/>
<path d="M332.778 29.2004C332.778 28.9042 333.018 28.6641 333.315 28.6641H341.197C341.494 28.6641 341.734 28.9042 341.734 29.2004V37.0832C341.734 37.3795 341.494 37.6196 341.197 37.6196H333.315C333.018 37.6196 332.778 37.3795 332.778 37.0832V29.2004Z" fill="#F0F1F4"/>
<path d="M332.592 42.9441C332.592 42.6479 332.832 42.4077 333.128 42.4077H341.011C341.307 42.4077 341.547 42.6479 341.547 42.9441V50.8268C341.547 51.123 341.307 51.3632 341.011 51.3632H333.128C332.832 51.3632 332.592 51.123 332.592 50.8268V42.9441Z" fill="#F0F1F4"/>
<path d="M332.778 57.4973C332.778 57.2011 333.018 56.9609 333.315 56.9609H341.197C341.494 56.9609 341.734 57.2011 341.734 57.4973V65.38C341.734 65.6763 341.494 65.9164 341.197 65.9164H333.315C333.018 65.9164 332.778 65.6763 332.778 65.38V57.4973Z" fill="#F0F1F4"/>
<path d="M332.778 70.9314C332.778 70.6352 333.018 70.395 333.315 70.395H341.197C341.494 70.395 341.734 70.6352 341.734 70.9314V78.8141C341.734 79.1103 341.494 79.3505 341.197 79.3505H333.315C333.018 79.3505 332.778 79.1103 332.778 78.8141V70.9314Z" fill="#F0F1F4"/>
<path d="M319.345 83.866C319.345 83.5697 319.586 83.3296 319.882 83.3296H327.764C328.061 83.3296 328.301 83.5697 328.301 83.866V91.7486C328.301 92.0449 328.061 92.285 327.764 92.285H319.882C319.586 92.285 319.345 92.0449 319.345 91.7486V83.866Z" fill="#F0F1F4"/>
<path d="M319.345 124.475C319.345 124.179 319.586 123.939 319.882 123.939H327.764C328.061 123.939 328.301 124.179 328.301 124.475V132.358C328.301 132.654 328.061 132.894 327.764 132.894H319.882C319.586 132.894 319.345 132.654 319.345 132.358V124.475Z" fill="#F0F1F4"/>
<path d="M332.778 83.866C332.778 83.5697 333.018 83.3296 333.315 83.3296H341.197C341.494 83.3296 341.734 83.5697 341.734 83.866V91.7486C341.734 92.0449 341.494 92.285 341.197 92.285H333.315C333.018 92.285 332.778 92.0449 332.778 91.7486V83.866Z" fill="#F0F1F4"/>
<path d="M332.778 124.475C332.778 124.179 333.018 123.939 333.315 123.939H341.197C341.494 123.939 341.734 124.179 341.734 124.475V132.358C341.734 132.654 341.494 132.894 341.197 132.894H333.315C333.018 132.894 332.778 132.654 332.778 132.358V124.475Z" fill="#F0F1F4"/>
<path d="M319.345 138.218C319.345 137.922 319.586 137.682 319.882 137.682H327.764C328.061 137.682 328.301 137.922 328.301 138.218V146.101C328.301 146.397 328.061 146.637 327.764 146.637H319.882C319.586 146.637 319.345 146.397 319.345 146.101V138.218Z" fill="#F0F1F4"/>
<path d="M332.778 138.218C332.778 137.922 333.018 137.682 333.315 137.682H341.197C341.494 137.682 341.734 137.922 341.734 138.218V146.101C341.734 146.397 341.494 146.637 341.197 146.637H333.315C333.018 146.637 332.778 146.397 332.778 146.101V138.218Z" fill="#F0F1F4"/>
<path d="M292.728 97.2981C292.728 97.0019 292.968 96.7617 293.264 96.7617H301.147C301.443 96.7617 301.683 97.0019 301.683 97.2981V105.181C301.683 105.477 301.443 105.717 301.147 105.717H293.264C292.968 105.717 292.728 105.477 292.728 105.181V97.2981Z" fill="#F0F1F4"/>
<path d="M292.728 111.602C292.728 111.306 292.968 111.065 293.264 111.065H301.147C301.443 111.065 301.683 111.306 301.683 111.602V119.484C301.683 119.781 301.443 120.021 301.147 120.021H293.264C292.968 120.021 292.728 119.781 292.728 119.484V111.602Z" fill="#F0F1F4"/>
<path d="M279.295 111.602C279.295 111.306 279.535 111.065 279.832 111.065H287.714C288.01 111.065 288.251 111.306 288.251 111.602V119.484C288.251 119.781 288.01 120.021 287.714 120.021H279.832C279.535 120.021 279.295 119.781 279.295 119.484V111.602Z" fill="#F0F1F4"/>
<path d="M332.778 15.7674C332.778 15.4711 333.018 15.231 333.315 15.231H341.197C341.494 15.231 341.734 15.4711 341.734 15.7674V23.65C341.734 23.9462 341.494 24.1864 341.197 24.1864H333.315C333.018 24.1864 332.778 23.9462 332.778 23.65V15.7674Z" fill="#F0F1F4"/>
<path d="M332.778 1.46365C332.778 1.16742 333.018 0.927246 333.315 0.927246H341.197C341.494 0.927246 341.734 1.16742 341.734 1.46365V9.34629C341.734 9.64253 341.494 9.88267 341.197 9.88267H333.315C333.018 9.88267 332.778 9.64253 332.778 9.34629V1.46365Z" fill="#F0F1F4"/>
<path d="M306.161 97.2981C306.161 97.0019 306.402 96.7617 306.698 96.7617H314.58C314.877 96.7617 315.117 97.0019 315.117 97.2981V105.181C315.117 105.477 314.877 105.717 314.58 105.717H306.698C306.402 105.717 306.161 105.477 306.161 105.181V97.2981Z" fill="#F0F1F4"/>
<path d="M279.295 97.2981C279.295 97.0019 279.535 96.7617 279.832 96.7617H287.714C288.011 96.7617 288.251 97.0019 288.251 97.2981V105.181C288.251 105.477 288.011 105.717 287.714 105.717H279.832C279.535 105.717 279.295 105.477 279.295 105.181V97.2981Z" fill="#F0F1F4"/>
<path d="M265.551 97.2981C265.551 97.0019 265.791 96.7617 266.087 96.7617H273.97C274.266 96.7617 274.506 97.0019 274.506 97.2981V105.181C274.506 105.477 274.266 105.717 273.97 105.717H266.087C265.791 105.717 265.551 105.477 265.551 105.181V97.2981Z" fill="#F0F1F4"/>
<path d="M265.551 111.602C265.551 111.306 265.791 111.065 266.087 111.065H273.97C274.266 111.065 274.506 111.306 274.506 111.602V119.484C274.506 119.781 274.266 120.021 273.97 120.021H266.087C265.791 120.021 265.551 119.781 265.551 119.484V111.602Z" fill="#F0F1F4"/>
<path d="M252.118 97.2981C252.118 97.0019 252.358 96.7617 252.655 96.7617H260.537C260.834 96.7617 261.074 97.0019 261.074 97.2981V105.181C261.074 105.477 260.834 105.717 260.537 105.717H252.655C252.358 105.717 252.118 105.477 252.118 105.181V97.2981Z" fill="#F0F1F4"/>
<path d="M266.422 70.1214C266.422 69.8251 266.662 69.585 266.958 69.585H274.841C275.137 69.585 275.377 69.8251 275.377 70.1214V78.004C275.377 78.3003 275.137 78.5404 274.841 78.5404H266.958C266.662 78.5404 266.422 78.3003 266.422 78.004V70.1214Z" fill="#F0F1F4"/>
<path d="M252.118 84.4251C252.118 84.1288 252.358 83.8887 252.655 83.8887H260.537C260.834 83.8887 261.074 84.1288 261.074 84.4251V92.3077C261.074 92.604 260.834 92.8441 260.537 92.8441H252.655C252.358 92.8441 252.118 92.604 252.118 92.3077V84.4251Z" fill="#F0F1F4"/>
<path d="M279.295 57.2478C279.295 56.9516 279.535 56.7114 279.832 56.7114H287.714C288.011 56.7114 288.251 56.9516 288.251 57.2478V65.1305C288.251 65.4267 288.011 65.6669 287.714 65.6669H279.832C279.535 65.6669 279.295 65.4267 279.295 65.1305V57.2478Z" fill="#F0F1F4"/>
<path d="M292.168 42.9441C292.168 42.6479 292.409 42.4077 292.705 42.4077H300.588C300.884 42.4077 301.124 42.6479 301.124 42.9441V50.8268C301.124 51.123 300.884 51.3632 300.588 51.3632H292.705C292.409 51.3632 292.168 51.123 292.168 50.8268V42.9441Z" fill="#F0F1F4"/>
<path d="M306.472 28.6404C306.472 28.3441 306.712 28.104 307.009 28.104H314.891C315.188 28.104 315.428 28.3441 315.428 28.6404V36.5231C315.428 36.8193 315.188 37.0595 314.891 37.0595H307.009C306.712 37.0595 306.472 36.8193 306.472 36.5231V28.6404Z" fill="#F0F1F4"/>
<path d="M319.345 15.7674C319.345 15.4711 319.586 15.231 319.882 15.231H327.765C328.061 15.231 328.301 15.4711 328.301 15.7674V23.65C328.301 23.9463 328.061 24.1864 327.765 24.1864H319.882C319.586 24.1864 319.345 23.9463 319.345 23.65V15.7674Z" fill="#F0F1F4"/>
<path d="M266.422 84.4251C266.422 84.1288 266.662 83.8887 266.958 83.8887H274.841C275.137 83.8887 275.377 84.1288 275.377 84.4251V92.3077C275.377 92.604 275.137 92.8441 274.841 92.8441H266.958C266.662 92.8441 266.422 92.604 266.422 92.3077V84.4251Z" fill="#F0F1F4"/>
<path d="M279.295 70.1214C279.295 69.8251 279.535 69.585 279.832 69.585H287.714C288.011 69.585 288.251 69.8251 288.251 70.1214V78.004C288.251 78.3003 288.011 78.5404 287.714 78.5404H279.832C279.535 78.5404 279.295 78.3003 279.295 78.004V70.1214Z" fill="#F0F1F4"/>
<path d="M292.168 57.2478C292.168 56.9516 292.409 56.7114 292.705 56.7114H300.588C300.884 56.7114 301.124 56.9516 301.124 57.2478V65.1305C301.124 65.4267 300.884 65.6669 300.588 65.6669H292.705C292.409 65.6669 292.168 65.4267 292.168 65.1305V57.2478Z" fill="#F0F1F4"/>
<path d="M306.472 42.9441C306.472 42.6479 306.712 42.4077 307.009 42.4077H314.891C315.188 42.4077 315.428 42.6479 315.428 42.9441V50.8268C315.428 51.123 315.188 51.3632 314.891 51.3632H307.009C306.712 51.3632 306.472 51.123 306.472 50.8268V42.9441Z" fill="#F0F1F4"/>
<path d="M306.161 111.602C306.161 111.306 306.402 111.065 306.698 111.065H314.58C314.877 111.065 315.117 111.306 315.117 111.602V119.484C315.117 119.781 314.877 120.021 314.58 120.021H306.698C306.402 120.021 306.161 119.781 306.161 119.484V111.602Z" fill="#F0F1F4"/>
<path d="M319.594 97.2981C319.594 97.0019 319.834 96.7617 320.131 96.7617H328.013C328.309 96.7617 328.55 97.0019 328.55 97.2981V105.181C328.55 105.477 328.309 105.717 328.013 105.717H320.131C319.834 105.717 319.594 105.477 319.594 105.181V97.2981Z" fill="#F0F1F4"/>
<path d="M319.594 111.602C319.594 111.306 319.834 111.065 320.131 111.065H328.013C328.309 111.065 328.55 111.306 328.55 111.602V119.484C328.55 119.781 328.309 120.021 328.013 120.021H320.131C319.834 120.021 319.594 119.781 319.594 119.484V111.602Z" fill="#F0F1F4"/>
<path d="M333.028 97.2981C333.028 97.0019 333.268 96.7617 333.564 96.7617H341.447C341.743 96.7617 341.983 97.0019 341.983 97.2981V105.181C341.983 105.477 341.743 105.717 341.447 105.717H333.564C333.268 105.717 333.028 105.477 333.028 105.181V97.2981Z" fill="#F0F1F4"/>
<path d="M346.522 97.2981C346.522 97.0019 346.763 96.7617 347.059 96.7617H354.941C355.238 96.7617 355.478 97.0019 355.478 97.2981V105.181C355.478 105.477 355.238 105.717 354.941 105.717H347.059C346.763 105.717 346.522 105.477 346.522 105.181V97.2981Z" fill="#F0F1F4"/>
<path d="M333.028 111.602C333.028 111.306 333.268 111.065 333.564 111.065H341.447C341.743 111.065 341.983 111.306 341.983 111.602V119.484C341.983 119.781 341.743 120.021 341.447 120.021H333.564C333.268 120.021 333.028 119.781 333.028 119.484V111.602Z" fill="#F0F1F4"/>
<path d="M346.46 111.602C346.46 111.306 346.701 111.065 346.997 111.065H354.879C355.176 111.065 355.416 111.306 355.416 111.602V119.484C355.416 119.781 355.176 120.021 354.879 120.021H346.997C346.701 120.021 346.46 119.781 346.46 119.484V111.602Z" fill="#F0F1F4"/>
</svg>

