<svg width="60" height="61" viewBox="0 0 60 61" fill="none" xmlns="http://www.w3.org/2000/svg">
<path d="M30 40.8474V30.8474M30 20.8474H30.025M5 22.1543V39.5406C5 40.152 5 40.4578 5.06908 40.7455C5.13032 41.0006 5.23133 41.2444 5.3684 41.4681C5.523 41.7204 5.73919 41.9366 6.17157 42.369L18.4784 54.6758C18.9108 55.1082 19.127 55.3244 19.3793 55.479C19.603 55.6161 19.8468 55.7171 20.1019 55.7783C20.3896 55.8474 20.6954 55.8474 21.3069 55.8474H38.6931C39.3046 55.8474 39.6104 55.8474 39.8981 55.7783C40.1532 55.7171 40.397 55.6161 40.6207 55.479C40.873 55.3244 41.0892 55.1082 41.5216 54.6758L53.8284 42.369C54.2608 41.9366 54.477 41.7204 54.6316 41.4681C54.7687 41.2444 54.8697 41.0006 54.9309 40.7455C55 40.4578 55 40.152 55 39.5406V22.1543C55 21.5428 55 21.2371 54.9309 20.9493C54.8697 20.6942 54.7687 20.4504 54.6316 20.2267C54.477 19.9744 54.2608 19.7582 53.8284 19.3258L41.5216 7.01898C41.0892 6.58661 40.873 6.37042 40.6207 6.21581C40.397 6.07874 40.1532 5.97773 39.8981 5.91649C39.6104 5.84741 39.3046 5.84741 38.6931 5.84741H21.3069C20.6954 5.84741 20.3896 5.84741 20.1019 5.91649C19.8468 5.97773 19.603 6.07874 19.3793 6.21581C19.127 6.37042 18.9108 6.58661 18.4784 7.01899L6.17157 19.3258C5.73919 19.7582 5.523 19.9744 5.3684 20.2267C5.23133 20.4504 5.13032 20.6942 5.06908 20.9493C5 21.2371 5 21.5428 5 22.1543Z" stroke="#FF005C" stroke-width="2" stroke-linecap="round" stroke-linejoin="round"/>
</svg>
