<svg width="33" height="33" viewBox="0 0 33 33" fill="none" xmlns="http://www.w3.org/2000/svg">
<g clip-path="url(#clip0_1_1063)">
<path d="M24.7244 16.8873C24.7123 14.6247 25.7219 12.9171 27.7654 11.6594C26.622 10.0011 24.8947 9.08865 22.614 8.90986C20.4549 8.73725 18.0951 10.186 17.2314 10.186C16.3191 10.186 14.2269 8.97151 12.5848 8.97151C9.19108 9.027 5.58447 11.7149 5.58447 17.1832C5.58447 18.7984 5.87641 20.467 6.46028 22.1891C7.23877 24.4516 10.0486 30 12.9801 29.9075C14.5128 29.8705 15.5954 28.804 17.5903 28.804C19.5243 28.804 20.5279 29.9075 22.2369 29.9075C25.1927 29.8644 27.735 24.8215 28.477 22.5528C24.5116 20.6602 24.7244 17.0044 24.7244 16.8873V16.8873ZM21.282 6.76448C22.9424 4.76705 22.7904 2.9484 22.7417 2.29492C21.276 2.38123 19.5791 3.30597 18.612 4.44647C17.5477 5.66712 16.9213 7.17753 17.0551 8.87904C18.6425 9.00234 20.09 8.17624 21.282 6.76448V6.76448Z" fill="white"/>
</g>
<defs>
<clipPath id="clip0_1_1063">
<rect width="27.7051" height="27.7051" fill="white" transform="translate(2.81396 2.29492)"/>
</clipPath>
</defs>
</svg>
