<svg width="24" height="25" viewBox="0 0 24 25" fill="none" xmlns="http://www.w3.org/2000/svg">
<path d="M16 8.84749V5.34814C16 4.5164 16 4.10053 15.8248 3.84496C15.6717 3.62167 15.4346 3.46998 15.1678 3.42456C14.8623 3.37258 14.4847 3.54686 13.7295 3.8954L4.85901 7.98948C4.18551 8.30033 3.84875 8.45575 3.60211 8.6968C3.38406 8.9099 3.21762 9.17003 3.1155 9.45731C3 9.78227 3 10.1532 3 10.8949V15.8475M16.5 15.3475H16.51M3 12.0475L3 18.6475C3 19.7676 3 20.3276 3.21799 20.7555C3.40973 21.1318 3.71569 21.4377 4.09202 21.6295C4.51984 21.8475 5.07989 21.8475 6.2 21.8475H17.8C18.9201 21.8475 19.4802 21.8475 19.908 21.6295C20.2843 21.4378 20.5903 21.1318 20.782 20.7555C21 20.3276 21 19.7676 21 18.6475V12.0475C21 10.9274 21 10.3673 20.782 9.9395C20.5903 9.56318 20.2843 9.25722 19.908 9.06547C19.4802 8.84749 18.9201 8.84749 17.8 8.84749L6.2 8.84748C5.0799 8.84748 4.51984 8.84748 4.09202 9.06547C3.7157 9.25722 3.40973 9.56318 3.21799 9.9395C3 10.3673 3 10.9274 3 12.0475ZM17 15.3475C17 15.6236 16.7761 15.8475 16.5 15.8475C16.2239 15.8475 16 15.6236 16 15.3475C16 15.0713 16.2239 14.8475 16.5 14.8475C16.7761 14.8475 17 15.0713 17 15.3475Z" stroke="currentColor" stroke-opacity="0.5" stroke-width="1.2" stroke-linecap="round" stroke-linejoin="round"/>
</svg>
