<svg width="17" height="16" viewBox="0 0 17 16" fill="none" xmlns="http://www.w3.org/2000/svg">
<g clip-path="url(#clip0_1_2059)">
<path d="M11.1668 5.33313V3.46646C11.1668 2.71973 11.1668 2.34636 11.0215 2.06114C10.8937 1.81026 10.6897 1.60629 10.4388 1.47845C10.1536 1.33313 9.78023 1.33313 9.0335 1.33313H3.96683C3.22009 1.33313 2.84672 1.33313 2.56151 1.47845C2.31063 1.60629 2.10665 1.81026 1.97882 2.06114C1.8335 2.34636 1.8335 2.71973 1.8335 3.46646V8.53313C1.8335 9.27987 1.8335 9.65324 1.97882 9.93845C2.10665 10.1893 2.31063 10.3933 2.56151 10.5211C2.84672 10.6665 3.22009 10.6665 3.96683 10.6665H5.8335M7.96683 14.6665H13.0335C13.7802 14.6665 14.1536 14.6665 14.4388 14.5211C14.6897 14.3933 14.8937 14.1893 15.0215 13.9385C15.1668 13.6532 15.1668 13.2799 15.1668 12.5331V7.46646C15.1668 6.71973 15.1668 6.34636 15.0215 6.06114C14.8937 5.81026 14.6897 5.60629 14.4388 5.47845C14.1536 5.33313 13.7802 5.33313 13.0335 5.33313H7.96683C7.22009 5.33313 6.84672 5.33313 6.56151 5.47845C6.31063 5.60629 6.10665 5.81026 5.97882 6.06114C5.8335 6.34636 5.8335 6.71973 5.8335 7.46646V12.5331C5.8335 13.2799 5.8335 13.6532 5.97882 13.9385C6.10665 14.1893 6.31063 14.3933 6.56151 14.5211C6.84672 14.6665 7.22009 14.6665 7.96683 14.6665Z" stroke="white" stroke-width="1.33333" stroke-linecap="round" stroke-linejoin="round"/>
</g>
<defs>
<clipPath id="clip0_1_2059">
<rect width="16" height="16" fill="white" transform="translate(0.5 -0.000244141)"/>
</clipPath>
</defs>
</svg>
