<svg width="16" height="16" viewBox="0 0 16 16" fill="none" xmlns="http://www.w3.org/2000/svg">
<path d="M1.91744 12.0769C1.94807 11.8012 1.96339 11.6634 2.00509 11.5346C2.04209 11.4203 2.09437 11.3115 2.16051 11.2112C2.23505 11.0982 2.33311 11.0001 2.52923 10.804L11.3334 1.99979C12.0698 1.26341 13.2637 1.26342 14.0001 1.99979C14.7365 2.73617 14.7365 3.93008 14.0001 4.66646L5.1959 13.4706C4.99978 13.6668 4.90172 13.7648 4.78867 13.8394C4.68838 13.9055 4.57961 13.9578 4.46531 13.9948C4.33648 14.0365 4.19865 14.0518 3.92299 14.0824L1.66675 14.3331L1.91744 12.0769Z" stroke="white" stroke-width="1.33333" stroke-linecap="round" stroke-linejoin="round"/>
</svg>
