<svg width="20" height="21" viewBox="0 0 20 21" fill="none" xmlns="http://www.w3.org/2000/svg">
<path d="M2.01677 10.7419C1.90328 10.5622 1.84654 10.4723 1.81477 10.3337C1.79091 10.2296 1.79091 10.0655 1.81477 9.96136C1.84654 9.82278 1.90328 9.73293 2.01677 9.55323C2.95461 8.06824 5.74617 4.31421 10.0003 4.31421C14.2545 4.31421 17.0461 8.06824 17.9839 9.55323C18.0974 9.73293 18.1541 9.82278 18.1859 9.96136C18.2098 10.0655 18.2098 10.2296 18.1859 10.3337C18.1541 10.4723 18.0974 10.5622 17.9839 10.7419C17.0461 12.2268 14.2545 15.9809 10.0003 15.9809C5.74617 15.9809 2.95461 12.2268 2.01677 10.7419Z" stroke="white" stroke-width="1.2" stroke-linecap="round" stroke-linejoin="round"/>
<path d="M10.0003 12.6475C11.381 12.6475 12.5003 11.5283 12.5003 10.1475C12.5003 8.76683 11.381 7.64754 10.0003 7.64754C8.61962 7.64754 7.50034 8.76683 7.50034 10.1475C7.50034 11.5283 8.61962 12.6475 10.0003 12.6475Z" stroke="white" stroke-width="1.2" stroke-linecap="round" stroke-linejoin="round"/>
</svg>
