<svg width="20" height="21" viewBox="0 0 20 21" fill="none" xmlns="http://www.w3.org/2000/svg">
<path d="M8.95245 4.39106C9.29113 4.34099 9.64051 4.31413 10.0003 4.31413C14.2545 4.31413 17.0461 8.06816 17.9839 9.55315C18.0974 9.73288 18.1542 9.82274 18.1859 9.96136C18.2098 10.0655 18.2098 10.2297 18.1859 10.3338C18.1541 10.4724 18.097 10.5628 17.9827 10.7438C17.7328 11.1393 17.3518 11.695 16.8471 12.2978M5.6036 5.74332C3.80187 6.96554 2.57871 8.66361 2.01759 9.55186C1.90357 9.73235 1.84656 9.8226 1.81478 9.9612C1.79091 10.0653 1.7909 10.2295 1.81476 10.3336C1.84652 10.4722 1.90328 10.5621 2.01678 10.7418C2.95462 12.2268 5.74618 15.9808 10.0003 15.9808C11.7157 15.9808 13.1932 15.3705 14.4073 14.5446M2.50035 2.64746L17.5003 17.6475M8.23258 8.37969C7.78017 8.8321 7.50035 9.4571 7.50035 10.1475C7.50035 11.5282 8.61963 12.6475 10.0003 12.6475C10.6907 12.6475 11.3157 12.3676 11.7681 11.9152" stroke="white" stroke-width="1.2" stroke-linecap="round" stroke-linejoin="round"/>
</svg>
