<svg width="33" height="33" viewBox="0 0 33 33" fill="none" xmlns="http://www.w3.org/2000/svg">
<g clip-path="url(#clip0_1_1059)">
<path fill-rule="evenodd" clip-rule="evenodd" d="M32.0253 16.51C32.0253 15.3755 31.9235 14.2846 31.7344 13.2373H16.6653V19.4264H25.2762C24.9053 21.4264 23.778 23.1209 22.0835 24.2555V28.27H27.2544C30.2798 25.4846 32.0253 21.3828 32.0253 16.51Z" fill="#4285F4"/>
<path fill-rule="evenodd" clip-rule="evenodd" d="M16.6646 32.1446C20.9846 32.1446 24.6065 30.7118 27.2537 28.2682L22.0828 24.2537C20.6501 25.2137 18.8174 25.7809 16.6646 25.7809C12.4974 25.7809 8.97009 22.9664 7.71191 19.1846H2.36646V23.33C4.99918 28.5591 10.4101 32.1446 16.6646 32.1446Z" fill="#34A853"/>
<path fill-rule="evenodd" clip-rule="evenodd" d="M7.71256 19.1874C7.39256 18.2274 7.21074 17.2019 7.21074 16.1474C7.21074 15.0928 7.39256 14.0674 7.71256 13.1074V8.96191H2.3671C1.28346 11.1219 0.665283 13.5656 0.665283 16.1474C0.665283 18.7292 1.28346 21.1728 2.3671 23.3328L7.71256 19.1874Z" fill="#FBBC05"/>
<path fill-rule="evenodd" clip-rule="evenodd" d="M16.6646 6.50914C19.0137 6.50914 21.1228 7.31642 22.781 8.90187L27.3701 4.31278C24.5992 1.73096 20.9774 0.145508 16.6646 0.145508C10.4101 0.145508 4.99918 3.73096 2.36646 8.96005L7.71191 13.1055C8.97009 9.32369 12.4974 6.50914 16.6646 6.50914Z" fill="#EA4335"/>
</g>
<defs>
<clipPath id="clip0_1_1059">
<rect width="32" height="32" fill="white" transform="translate(0.333252 0.147461)"/>
</clipPath>
</defs>
</svg>
