<svg width="31" height="32" viewBox="0 0 31 32" fill="none" xmlns="http://www.w3.org/2000/svg">
<path d="M0.62207 8.71814C0.62207 8.63066 0.692907 8.55975 0.780289 8.55975H3.10542C3.19281 8.55975 3.26365 8.63066 3.26365 8.71814V11.0458C3.26365 11.1333 3.19281 11.2042 3.10542 11.2042H0.780289C0.692907 11.2042 0.62207 11.1333 0.62207 11.0458V8.71814Z" fill="#F0F1F4"/>
<path d="M0.62207 12.6845C0.62207 12.597 0.692907 12.5261 0.780289 12.5261H3.10542C3.19281 12.5261 3.26365 12.597 3.26365 12.6845V15.0121C3.26365 15.0996 3.19281 15.1705 3.10542 15.1705H0.780289C0.692907 15.1705 0.62207 15.0996 0.62207 15.0121V12.6845Z" fill="#F0F1F4"/>
<path d="M0.62207 16.6513C0.62207 16.5638 0.692907 16.4929 0.780289 16.4929H3.10542C3.19281 16.4929 3.26365 16.5638 3.26365 16.6513V18.9789C3.26365 19.0664 3.19281 19.1373 3.10542 19.1373H0.780289C0.692907 19.1373 0.62207 19.0664 0.62207 18.9789V16.6513Z" fill="#F0F1F4"/>
<path d="M0.62207 20.618C0.62207 20.5306 0.692907 20.4597 0.780289 20.4597H3.10542C3.19281 20.4597 3.26365 20.5306 3.26365 20.618V22.9457C3.26365 23.0331 3.19281 23.1041 3.10542 23.1041H0.780289C0.692907 23.1041 0.62207 23.0331 0.62207 22.9457V20.618Z" fill="#F0F1F4"/>
<path d="M4.58447 8.71814C4.58447 8.63066 4.65532 8.55975 4.7427 8.55975H7.06783C7.15521 8.55975 7.22605 8.63066 7.22605 8.71814V11.0458C7.22605 11.1333 7.15521 11.2042 7.06783 11.2042H4.7427C4.65532 11.2042 4.58447 11.1333 4.58447 11.0458V8.71814Z" fill="#F0F1F4"/>
<path d="M24.3965 8.71814C24.3965 8.63066 24.4673 8.55975 24.5547 8.55975H26.8798C26.9672 8.55975 27.0381 8.63066 27.0381 8.71814V11.0458C27.0381 11.1333 26.9672 11.2042 26.8798 11.2042H24.5547C24.4673 11.2042 24.3965 11.1333 24.3965 11.0458V8.71814Z" fill="#F0F1F4"/>
<path d="M28.3584 8.71814C28.3584 8.63066 28.4292 8.55975 28.5166 8.55975H30.8418C30.9291 8.55975 31 8.63066 31 8.71814V11.0458C31 11.1333 30.9291 11.2042 30.8418 11.2042H28.5166C28.4292 11.2042 28.3584 11.1333 28.3584 11.0458V8.71814Z" fill="#F0F1F4"/>
<path d="M4.58447 12.6845C4.58447 12.597 4.65532 12.5261 4.7427 12.5261H7.06783C7.15521 12.5261 7.22605 12.597 7.22605 12.6845V15.0121C7.22605 15.0996 7.15521 15.1705 7.06783 15.1705H4.7427C4.65532 15.1705 4.58447 15.0996 4.58447 15.0121V12.6845Z" fill="#F0F1F4"/>
<path d="M24.3965 12.6845C24.3965 12.597 24.4673 12.5261 24.5547 12.5261H26.8798C26.9672 12.5261 27.0381 12.597 27.0381 12.6845V15.0121C27.0381 15.0996 26.9672 15.1705 26.8798 15.1705H24.5547C24.4673 15.1705 24.3965 15.0996 24.3965 15.0121V12.6845Z" fill="#F0F1F4"/>
<path d="M28.3584 12.6845C28.3584 12.597 28.4292 12.5261 28.5166 12.5261H30.8418C30.9291 12.5261 31 12.597 31 12.6845V15.0121C31 15.0996 30.9291 15.1705 30.8418 15.1705H28.5166C28.4292 15.1705 28.3584 15.0996 28.3584 15.0121V12.6845Z" fill="#F0F1F4"/>
<path d="M4.58447 16.6513C4.58447 16.5638 4.65532 16.4929 4.7427 16.4929H7.06783C7.15521 16.4929 7.22605 16.5638 7.22605 16.6513V18.9789C7.22605 19.0664 7.15521 19.1373 7.06783 19.1373H4.7427C4.65532 19.1373 4.58447 19.0664 4.58447 18.9789V16.6513Z" fill="#F0F1F4"/>
<path d="M24.3965 16.6513C24.3965 16.5638 24.4673 16.4929 24.5547 16.4929H26.8798C26.9672 16.4929 27.0381 16.5638 27.0381 16.6513V18.9789C27.0381 19.0664 26.9672 19.1373 26.8798 19.1373H24.5547C24.4673 19.1373 24.3965 19.0664 24.3965 18.9789V16.6513Z" fill="#F0F1F4"/>
<path d="M28.3584 16.6513C28.3584 16.5638 28.4292 16.4929 28.5166 16.4929H30.8418C30.9291 16.4929 31 16.5638 31 16.6513V18.9789C31 19.0664 30.9291 19.1373 30.8418 19.1373H28.5166C28.4292 19.1373 28.3584 19.0664 28.3584 18.9789V16.6513Z" fill="#F0F1F4"/>
<path d="M4.58447 20.618C4.58447 20.5306 4.65532 20.4597 4.7427 20.4597H7.06783C7.15521 20.4597 7.22605 20.5306 7.22605 20.618V22.9457C7.22605 23.0331 7.15521 23.1041 7.06783 23.1041H4.7427C4.65532 23.1041 4.58447 23.0331 4.58447 22.9457V20.618Z" fill="#F0F1F4"/>
<path d="M28.3584 20.618C28.3584 20.5306 28.4292 20.4597 28.5166 20.4597H30.8418C30.9291 20.4597 31 20.5306 31 20.618V22.9457C31 23.0331 30.9291 23.1041 30.8418 23.1041H28.5166C28.4292 23.1041 28.3584 23.0331 28.3584 22.9457V20.618Z" fill="#F0F1F4"/>
<path d="M4.58447 24.5845C4.58447 24.497 4.65532 24.4261 4.7427 24.4261H7.06783C7.15521 24.4261 7.22605 24.497 7.22605 24.5845V26.9121C7.22605 26.9996 7.15521 27.0705 7.06783 27.0705H4.7427C4.65532 27.0705 4.58447 26.9996 4.58447 26.9121V24.5845Z" fill="#F0F1F4"/>
<path d="M24.3965 24.5845C24.3965 24.497 24.4673 24.4261 24.5547 24.4261H26.8798C26.9672 24.4261 27.0381 24.497 27.0381 24.5845V26.9121C27.0381 26.9996 26.9672 27.0705 26.8798 27.0705H24.5547C24.4673 27.0705 24.3965 26.9996 24.3965 26.9121V24.5845Z" fill="#F0F1F4"/>
<path d="M20.4341 20.618C20.4341 20.5306 20.5049 20.4597 20.5923 20.4597H22.9174C23.0048 20.4597 23.0757 20.5306 23.0757 20.618V22.9457C23.0757 23.0331 23.0048 23.1041 22.9174 23.1041H20.5923C20.5049 23.1041 20.4341 23.0331 20.4341 22.9457V20.618Z" fill="#F0F1F4"/>
<path d="M16.4717 16.6513C16.4717 16.5638 16.5425 16.4929 16.6299 16.4929H18.955C19.0424 16.4929 19.1133 16.5638 19.1133 16.6513V18.9789C19.1133 19.0664 19.0424 19.1373 18.955 19.1373H16.6299C16.5425 19.1373 16.4717 19.0664 16.4717 18.9789V16.6513Z" fill="#F0F1F4"/>
<path d="M28.3584 28.5508C28.3584 28.4634 28.4292 28.3925 28.5166 28.3925H30.8418C30.9291 28.3925 31 28.4634 31 28.5508V30.8785C31 30.9659 30.9291 31.0369 30.8418 31.0369H28.5166C28.4292 31.0369 28.3584 30.9659 28.3584 30.8785V28.5508Z" fill="#F0F1F4"/>
<path d="M4.58447 4.75135C4.58447 4.66388 4.65532 4.59296 4.7427 4.59296H7.06783C7.15521 4.59296 7.22605 4.66388 7.22605 4.75135V7.07897C7.22605 7.16644 7.15521 7.23735 7.06783 7.23735H4.7427C4.65532 7.23735 4.58447 7.16644 4.58447 7.07897V4.75135Z" fill="#F0F1F4"/>
<path d="M8.54688 4.75135C8.54688 4.66388 8.61771 4.59296 8.70509 4.59296H11.0303C11.1177 4.59296 11.1885 4.66388 11.1885 4.75135V7.07897C11.1885 7.16644 11.1177 7.23735 11.0303 7.23735H8.70509C8.61771 7.23735 8.54688 7.16644 8.54688 7.07897V4.75135Z" fill="#F0F1F4"/>
<path d="M8.54688 24.5845C8.54688 24.497 8.61771 24.4261 8.70509 24.4261H11.0303C11.1177 24.4261 11.1885 24.497 11.1885 24.5845V26.9121C11.1885 26.9996 11.1177 27.0705 11.0303 27.0705H8.70509C8.61771 27.0705 8.54688 26.9996 8.54688 26.9121V24.5845Z" fill="#F0F1F4"/>
<path d="M8.54688 28.5508C8.54688 28.4634 8.61771 28.3925 8.70509 28.3925H11.0303C11.1177 28.3925 11.1885 28.4634 11.1885 28.5508V30.8785C11.1885 30.9659 11.1177 31.0369 11.0303 31.0369H8.70509C8.61771 31.0369 8.54688 30.9659 8.54688 30.8785V28.5508Z" fill="#F0F1F4"/>
<path d="M8.54688 0.784975C8.54688 0.6975 8.61771 0.626587 8.70509 0.626587H11.0303C11.1177 0.626587 11.1885 0.6975 11.1885 0.784975V3.11259C11.1885 3.20007 11.1177 3.27098 11.0303 3.27098H8.70509C8.61771 3.27098 8.54688 3.20007 8.54688 3.11259V0.784975Z" fill="#F0F1F4"/>
<path d="M12.5093 4.75135C12.5093 4.66388 12.5801 4.59296 12.6675 4.59296H14.9926C15.08 4.59296 15.1509 4.66388 15.1509 4.75135V7.07897C15.1509 7.16644 15.08 7.23735 14.9926 7.23735H12.6675C12.5801 7.23735 12.5093 7.16644 12.5093 7.07897V4.75135Z" fill="#F0F1F4"/>
<path d="M12.5093 24.5845C12.5093 24.497 12.5801 24.4261 12.6675 24.4261H14.9926C15.08 24.4261 15.1509 24.497 15.1509 24.5845V26.9121C15.1509 26.9996 15.08 27.0705 14.9926 27.0705H12.6675C12.5801 27.0705 12.5093 26.9996 12.5093 26.9121V24.5845Z" fill="#F0F1F4"/>
<path d="M12.5093 28.5508C12.5093 28.4634 12.5801 28.3925 12.6675 28.3925H14.9926C15.08 28.3925 15.1509 28.4634 15.1509 28.5508V30.8785C15.1509 30.9659 15.08 31.0369 14.9926 31.0369H12.6675C12.5801 31.0369 12.5093 30.9659 12.5093 30.8785V28.5508Z" fill="#F0F1F4"/>
<path d="M12.5093 0.784975C12.5093 0.6975 12.5801 0.626587 12.6675 0.626587H14.9926C15.08 0.626587 15.1509 0.6975 15.1509 0.784975V3.11259C15.1509 3.20007 15.08 3.27098 14.9926 3.27098H12.6675C12.5801 3.27098 12.5093 3.20007 12.5093 3.11259V0.784975Z" fill="#F0F1F4"/>
<path d="M16.4717 4.75135C16.4717 4.66388 16.5425 4.59296 16.6299 4.59296H18.955C19.0424 4.59296 19.1133 4.66388 19.1133 4.75135V7.07897C19.1133 7.16644 19.0424 7.23735 18.955 7.23735H16.6299C16.5425 7.23735 16.4717 7.16644 16.4717 7.07897V4.75135Z" fill="#F0F1F4"/>
<path d="M16.4717 24.5845C16.4717 24.497 16.5425 24.4261 16.6299 24.4261H18.955C19.0424 24.4261 19.1133 24.497 19.1133 24.5845V26.9121C19.1133 26.9996 19.0424 27.0705 18.955 27.0705H16.6299C16.5425 27.0705 16.4717 26.9996 16.4717 26.9121V24.5845Z" fill="#F0F1F4"/>
<path d="M16.4717 28.5508C16.4717 28.4634 16.5425 28.3925 16.6299 28.3925H18.955C19.0424 28.3925 19.1133 28.4634 19.1133 28.5508V30.8785C19.1133 30.9659 19.0424 31.0369 18.955 31.0369H16.6299C16.5425 31.0369 16.4717 30.9659 16.4717 30.8785V28.5508Z" fill="#F0F1F4"/>
<path d="M20.4341 28.5508C20.4341 28.4634 20.5049 28.3925 20.5923 28.3925H22.9174C23.0048 28.3925 23.0757 28.4634 23.0757 28.5508V30.8785C23.0757 30.9659 23.0048 31.0369 22.9174 31.0369H20.5923C20.5049 31.0369 20.4341 30.9659 20.4341 30.8785V28.5508Z" fill="#F0F1F4"/>
<path d="M16.4717 0.784975C16.4717 0.6975 16.5425 0.626587 16.6299 0.626587H18.955C19.0424 0.626587 19.1133 0.6975 19.1133 0.784975V3.11259C19.1133 3.20007 19.0424 3.27098 18.955 3.27098H16.6299C16.5425 3.27098 16.4717 3.20007 16.4717 3.11259V0.784975Z" fill="#F0F1F4"/>
<path d="M20.4341 4.75135C20.4341 4.66388 20.5049 4.59296 20.5923 4.59296H22.9174C23.0048 4.59296 23.0757 4.66388 23.0757 4.75135V7.07897C23.0757 7.16644 23.0048 7.23735 22.9174 7.23735H20.5923C20.5049 7.23735 20.4341 7.16644 20.4341 7.07897V4.75135Z" fill="#F0F1F4"/>
<path d="M20.4341 0.784975C20.4341 0.6975 20.5049 0.626587 20.5923 0.626587H22.9174C23.0048 0.626587 23.0757 0.6975 23.0757 0.784975V3.11259C23.0757 3.20007 23.0048 3.27098 22.9174 3.27098H20.5923C20.5049 3.27098 20.4341 3.20007 20.4341 3.11259V0.784975Z" fill="#F0F1F4"/>
<path d="M24.3965 4.75135C24.3965 4.66388 24.4673 4.59296 24.5547 4.59296H26.8798C26.9672 4.59296 27.0381 4.66388 27.0381 4.75135V7.07897C27.0381 7.16644 26.9672 7.23735 26.8798 7.23735H24.5547C24.4673 7.23735 24.3965 7.16644 24.3965 7.07897V4.75135Z" fill="#F0F1F4"/>
</svg>
