<svg width="257" height="42" viewBox="0 0 257 42" fill="none" xmlns="http://www.w3.org/2000/svg">
<g clip-path="url(#clip0_1_1013)">
<path d="M76.9117 26.2262L75.7395 27.9502L74.0303 26.9386C73.4645 27.6407 72.6463 28.1564 71.5831 28.482C70.8798 28.7039 69.8562 28.8276 68.5129 28.859C67.8438 28.859 67.1807 28.859 66.5175 28.859C64.8078 28.859 63.5844 28.8174 62.847 28.7299C62.1097 28.6472 61.4289 28.4664 60.7999 28.1927C59.5248 27.6301 58.696 26.598 58.3075 25.106C58.1133 24.4042 58.0104 23.5321 57.9873 22.4944C57.9642 21.9162 57.9526 20.7235 57.9526 18.9068C57.9526 17.3068 57.9983 16.1968 58.0896 15.5828C58.4044 13.3631 59.3878 11.923 61.0404 11.2723C61.7662 10.9784 62.7155 10.8029 63.8926 10.7409C64.6592 10.6994 65.5682 10.6792 66.6089 10.6792C68.2042 10.6792 69.3929 10.7202 70.171 10.7976C70.9425 10.8804 71.6172 11.035 72.189 11.2675C73.8415 11.923 74.8249 13.3631 75.1392 15.5828C75.2305 16.1968 75.2768 17.3531 75.2768 19.0515C75.2768 21.1547 75.2448 22.662 75.1799 23.5733L73.3573 22.5521C72.4206 21.9904 72.599 21.8216 72.599 19.9722C72.599 17.7782 72.5742 16.2949 72.5324 15.9285C72.4377 15.0977 72.2803 14.4728 72.0464 14.0443C71.8121 13.6216 71.4692 13.3168 71.0119 13.136C70.5766 12.9706 69.9482 12.8779 69.1359 12.8469C68.4898 12.826 67.644 12.816 66.6089 12.816C65.2139 12.816 64.225 12.8366 63.6356 12.8832C63.0529 12.9295 62.5834 13.0222 62.2235 13.167C61.555 13.4251 61.103 13.998 60.8687 14.8807C60.7085 15.4947 60.6288 16.2121 60.6288 17.0331V19.7742C60.6288 21.9318 60.6513 23.2065 60.697 23.6144C60.7888 24.4404 60.943 25.065 61.1718 25.483C61.4003 25.9061 61.7547 26.2056 62.2351 26.3863C62.6638 26.5618 63.2581 26.6597 64.0301 26.6908C64.6416 26.7116 65.4142 26.7217 66.3404 26.7217C67.7871 26.7217 68.9362 26.7008 69.771 26.6597C70.7544 26.5877 71.4631 26.2624 71.8979 25.6739L68.8564 23.8766L69.4815 23.039C69.7043 22.7421 69.9261 22.4446 70.1484 22.1476L71.6452 23.0503L76.9117 26.2262ZM93.4396 10.9266H96.1151V23.2168C96.1151 24.7293 95.9325 25.8287 95.5609 26.5152C95.0179 27.5528 94.0345 28.2445 92.6163 28.5853C91.8448 28.7657 90.3579 28.859 88.1451 28.859C86.5729 28.859 85.4409 28.8276 84.7553 28.7657C84.0684 28.7092 83.4631 28.5853 82.9365 28.4044C81.7649 28.0018 80.9586 27.372 80.5124 26.5152C80.1409 25.7978 79.9582 24.6985 79.9582 23.2168V10.9266H82.6338V23.2168C82.6338 24.4712 82.7483 25.2869 82.9827 25.6586C83.2859 26.1233 83.8686 26.4327 84.7376 26.5877C85.2637 26.6753 86.2696 26.7217 87.7626 26.7217C89.9518 26.7217 91.3935 26.6188 92.0677 26.4171C92.6966 26.2369 93.0973 25.7825 93.2744 25.0544C93.3824 24.6467 93.4396 24.0325 93.4396 23.2168V10.9266ZM113.632 24.9566H103.964L102.427 28.6109H99.5963L107.029 10.9266H110.414L118.001 28.6109H115.188L113.632 24.9566ZM112.758 22.9122L108.756 13.4767L104.822 22.9122H112.758ZM138.829 10.9266V28.6109H134.884L124.146 13.1461V28.6109H121.47V10.9266H125.398L136.153 26.3916V10.9266H138.829ZM151.755 13.2186V28.6109H149.078V13.2186H142.596V10.9266H158.169V13.2186H151.755ZM164.635 10.9266V28.6109H161.959V10.9266H164.635ZM172.839 10.9266V26.3191H183.165V28.6109H170.162V10.9266H172.839ZM189.636 10.9266V26.3191H199.96V28.6109H186.959V10.9266H189.636ZM206.431 10.9266V28.6109H203.756V10.9266H206.431ZM225.442 10.9266H228.117V23.2168C228.117 24.7293 227.935 25.8287 227.563 26.5152C227.02 27.5528 226.037 28.2445 224.618 28.5853C223.846 28.7657 222.36 28.859 220.147 28.859C218.575 28.859 217.443 28.8276 216.756 28.7657C216.071 28.7092 215.465 28.5853 214.939 28.4044C213.766 28.0018 212.96 27.372 212.515 26.5152C212.143 25.7978 211.96 24.6985 211.96 23.2168V10.9266H214.636V23.2168C214.636 24.4712 214.75 25.2869 214.984 25.6586C215.288 26.1233 215.871 26.4327 216.74 26.5877C217.266 26.6753 218.271 26.7217 219.764 26.7217C221.954 26.7217 223.394 26.6188 224.07 26.4171C224.698 26.2369 225.099 25.7825 225.276 25.0544C225.384 24.6467 225.442 24.0325 225.442 23.2168V10.9266ZM255.618 10.9266V28.6109H252.941V13.1461L245.909 28.6109H243.405L236.338 13.1461V28.6109H233.662V10.9266H237.824L244.622 26.0251L251.404 10.9266H255.618Z" fill="#F0F1F4"/>
<path d="M0 11.4453C0 11.3313 0.0923924 11.2388 0.206364 11.2388H3.23902C3.353 11.2388 3.44539 11.3313 3.44539 11.4453V14.4813C3.44539 14.5954 3.353 14.6879 3.23902 14.6879H0.206364C0.0923924 14.6879 0 14.5954 0 14.4813V11.4453Z" fill="#F0F1F4"/>
<path d="M0 16.6187C0 16.5046 0.0923924 16.4121 0.206364 16.4121H3.23902C3.353 16.4121 3.44539 16.5046 3.44539 16.6187V19.6546C3.44539 19.7687 3.353 19.8612 3.23902 19.8612H0.206364C0.0923924 19.8612 0 19.7687 0 19.6546V16.6187Z" fill="#F0F1F4"/>
<path d="M0 21.7925C0 21.6784 0.0923924 21.5859 0.206364 21.5859H3.23902C3.353 21.5859 3.44539 21.6784 3.44539 21.7925V24.8284C3.44539 24.9425 3.353 25.035 3.23902 25.035H0.206364C0.0923924 25.035 0 24.9425 0 24.8284V21.7925Z" fill="#F0F1F4"/>
<path d="M0 26.9664C0 26.8523 0.0923924 26.7598 0.206364 26.7598H3.23902C3.353 26.7598 3.44539 26.8523 3.44539 26.9664V30.0023C3.44539 30.1164 3.353 30.2088 3.23902 30.2088H0.206364C0.0923924 30.2088 0 30.1164 0 30.0023V26.9664Z" fill="#F0F1F4"/>
<path d="M5.16821 11.4453C5.16821 11.3313 5.26061 11.2388 5.37458 11.2388H8.40724C8.52121 11.2388 8.6136 11.3313 8.6136 11.4453V14.4813C8.6136 14.5954 8.52121 14.6879 8.40724 14.6879H5.37458C5.26061 14.6879 5.16821 14.5954 5.16821 14.4813V11.4453Z" fill="#F0F1F4"/>
<path d="M31.0085 11.4453C31.0085 11.3313 31.1009 11.2388 31.2149 11.2388H34.2476C34.3616 11.2388 34.4539 11.3313 34.4539 11.4453V14.4813C34.4539 14.5954 34.3616 14.6879 34.2476 14.6879H31.2149C31.1009 14.6879 31.0085 14.5954 31.0085 14.4813V11.4453Z" fill="#F0F1F4"/>
<path d="M36.1765 11.4453C36.1765 11.3313 36.2689 11.2388 36.3829 11.2388H39.4155C39.5295 11.2388 39.6219 11.3313 39.6219 11.4453V14.4813C39.6219 14.5954 39.5295 14.6879 39.4155 14.6879H36.3829C36.2689 14.6879 36.1765 14.5954 36.1765 14.4813V11.4453Z" fill="#F0F1F4"/>
<path d="M5.16821 16.6187C5.16821 16.5046 5.26061 16.4121 5.37458 16.4121H8.40724C8.52121 16.4121 8.6136 16.5046 8.6136 16.6187V19.6546C8.6136 19.7687 8.52121 19.8612 8.40724 19.8612H5.37458C5.26061 19.8612 5.16821 19.7687 5.16821 19.6546V16.6187Z" fill="#F0F1F4"/>
<path d="M31.0085 16.6187C31.0085 16.5046 31.1009 16.4121 31.2149 16.4121H34.2476C34.3616 16.4121 34.4539 16.5046 34.4539 16.6187V19.6546C34.4539 19.7687 34.3616 19.8612 34.2476 19.8612H31.2149C31.1009 19.8612 31.0085 19.7687 31.0085 19.6546V16.6187Z" fill="#F0F1F4"/>
<path d="M36.1765 16.6187C36.1765 16.5046 36.2689 16.4121 36.3829 16.4121H39.4155C39.5295 16.4121 39.6219 16.5046 39.6219 16.6187V19.6546C39.6219 19.7687 39.5295 19.8612 39.4155 19.8612H36.3829C36.2689 19.8612 36.1765 19.7687 36.1765 19.6546V16.6187Z" fill="#F0F1F4"/>
<path d="M5.16821 21.7925C5.16821 21.6784 5.26061 21.5859 5.37458 21.5859H8.40724C8.52121 21.5859 8.6136 21.6784 8.6136 21.7925V24.8284C8.6136 24.9425 8.52121 25.035 8.40724 25.035H5.37458C5.26061 25.035 5.16821 24.9425 5.16821 24.8284V21.7925Z" fill="#F0F1F4"/>
<path d="M31.0085 21.7925C31.0085 21.6784 31.1009 21.5859 31.2149 21.5859H34.2476C34.3616 21.5859 34.4539 21.6784 34.4539 21.7925V24.8284C34.4539 24.9425 34.3616 25.035 34.2476 25.035H31.2149C31.1009 25.035 31.0085 24.9425 31.0085 24.8284V21.7925Z" fill="#F0F1F4"/>
<path d="M36.1765 21.7925C36.1765 21.6784 36.2689 21.5859 36.3829 21.5859H39.4155C39.5295 21.5859 39.6219 21.6784 39.6219 21.7925V24.8284C39.6219 24.9425 39.5295 25.035 39.4155 25.035H36.3829C36.2689 25.035 36.1765 24.9425 36.1765 24.8284V21.7925Z" fill="#F0F1F4"/>
<path d="M5.16821 26.9664C5.16821 26.8523 5.26061 26.7598 5.37458 26.7598H8.40724C8.52121 26.7598 8.6136 26.8523 8.6136 26.9664V30.0023C8.6136 30.1164 8.52121 30.2088 8.40724 30.2088H5.37458C5.26061 30.2088 5.16821 30.1164 5.16821 30.0023V26.9664Z" fill="#F0F1F4"/>
<path d="M36.1765 26.9664C36.1765 26.8523 36.2689 26.7598 36.3829 26.7598H39.4155C39.5295 26.7598 39.6219 26.8523 39.6219 26.9664V30.0023C39.6219 30.1164 39.5295 30.2088 39.4155 30.2088H36.3829C36.2689 30.2088 36.1765 30.1164 36.1765 30.0023V26.9664Z" fill="#F0F1F4"/>
<path d="M5.16821 32.1397C5.16821 32.0256 5.26061 31.9331 5.37458 31.9331H8.40724C8.52121 31.9331 8.6136 32.0256 8.6136 32.1397V35.1756C8.6136 35.2897 8.52121 35.3822 8.40724 35.3822H5.37458C5.26061 35.3822 5.16821 35.2897 5.16821 35.1756V32.1397Z" fill="#F0F1F4"/>
<path d="M31.0085 32.1397C31.0085 32.0256 31.1009 31.9331 31.2149 31.9331H34.2476C34.3616 31.9331 34.4539 32.0256 34.4539 32.1397V35.1756C34.4539 35.2897 34.3616 35.3822 34.2476 35.3822H31.2149C31.1009 35.3822 31.0085 35.2897 31.0085 35.1756V32.1397Z" fill="#F0F1F4"/>
<path d="M25.8406 26.9664C25.8406 26.8523 25.933 26.7598 26.0469 26.7598H29.0796C29.1936 26.7598 29.286 26.8523 29.286 26.9664V30.0023C29.286 30.1164 29.1936 30.2088 29.0796 30.2088H26.0469C25.933 30.2088 25.8406 30.1164 25.8406 30.0023V26.9664Z" fill="#F0F1F4"/>
<path d="M20.6724 21.7925C20.6724 21.6784 20.7648 21.5859 20.8787 21.5859H23.9114C24.0254 21.5859 24.1178 21.6784 24.1178 21.7925V24.8284C24.1178 24.9425 24.0254 25.035 23.9114 25.035H20.8787C20.7648 25.035 20.6724 24.9425 20.6724 24.8284V21.7925Z" fill="#F0F1F4"/>
<path d="M36.1765 37.313C36.1765 37.1989 36.2689 37.1064 36.3829 37.1064H39.4155C39.5295 37.1064 39.6219 37.1989 39.6219 37.313V40.3489C39.6219 40.463 39.5295 40.5555 39.4155 40.5555H36.3829C36.2689 40.5555 36.1765 40.463 36.1765 40.3489V37.313Z" fill="#F0F1F4"/>
<path d="M5.16821 6.27153C5.16821 6.15744 5.26061 6.06494 5.37458 6.06494H8.40724C8.52121 6.06494 8.6136 6.15744 8.6136 6.27153V9.30743C8.6136 9.42152 8.52121 9.514 8.40724 9.514H5.37458C5.26061 9.514 5.16821 9.42152 5.16821 9.30743V6.27153Z" fill="#F0F1F4"/>
<path d="M10.3362 6.27153C10.3362 6.15744 10.4286 6.06494 10.5425 6.06494H13.5752C13.6892 6.06494 13.7816 6.15744 13.7816 6.27153V9.30743C13.7816 9.42152 13.6892 9.514 13.5752 9.514H10.5425C10.4286 9.514 10.3362 9.42152 10.3362 9.30743V6.27153Z" fill="#F0F1F4"/>
<path d="M10.3362 32.1397C10.3362 32.0256 10.4286 31.9331 10.5425 31.9331H13.5752C13.6892 31.9331 13.7816 32.0256 13.7816 32.1397V35.1756C13.7816 35.2897 13.6892 35.3822 13.5752 35.3822H10.5425C10.4286 35.3822 10.3362 35.2897 10.3362 35.1756V32.1397Z" fill="#F0F1F4"/>
<path d="M10.3362 37.313C10.3362 37.1989 10.4286 37.1064 10.5425 37.1064H13.5752C13.6892 37.1064 13.7816 37.1989 13.7816 37.313V40.3489C13.7816 40.463 13.6892 40.5555 13.5752 40.5555H10.5425C10.4286 40.5555 10.3362 40.463 10.3362 40.3489V37.313Z" fill="#F0F1F4"/>
<path d="M10.3362 1.09819C10.3362 0.984093 10.4286 0.891602 10.5425 0.891602H13.5752C13.6892 0.891602 13.7816 0.984093 13.7816 1.09819V4.13407C13.7816 4.24818 13.6892 4.34067 13.5752 4.34067H10.5425C10.4286 4.34067 10.3362 4.24818 10.3362 4.13407V1.09819Z" fill="#F0F1F4"/>
<path d="M15.5042 6.27153C15.5042 6.15744 15.5965 6.06494 15.7105 6.06494H18.7432C18.8572 6.06494 18.9496 6.15744 18.9496 6.27153V9.30743C18.9496 9.42152 18.8572 9.514 18.7432 9.514H15.7105C15.5965 9.514 15.5042 9.42152 15.5042 9.30743V6.27153Z" fill="#F0F1F4"/>
<path d="M15.5042 32.1397C15.5042 32.0256 15.5965 31.9331 15.7105 31.9331H18.7432C18.8572 31.9331 18.9496 32.0256 18.9496 32.1397V35.1756C18.9496 35.2897 18.8572 35.3822 18.7432 35.3822H15.7105C15.5965 35.3822 15.5042 35.2897 15.5042 35.1756V32.1397Z" fill="#F0F1F4"/>
<path d="M15.5042 37.313C15.5042 37.1989 15.5965 37.1064 15.7105 37.1064H18.7432C18.8572 37.1064 18.9496 37.1989 18.9496 37.313V40.3489C18.9496 40.463 18.8572 40.5555 18.7432 40.5555H15.7105C15.5965 40.5555 15.5042 40.463 15.5042 40.3489V37.313Z" fill="#F0F1F4"/>
<path d="M15.5042 1.09819C15.5042 0.984093 15.5965 0.891602 15.7105 0.891602H18.7432C18.8572 0.891602 18.9496 0.984093 18.9496 1.09819V4.13407C18.9496 4.24818 18.8572 4.34067 18.7432 4.34067H15.7105C15.5965 4.34067 15.5042 4.24818 15.5042 4.13407V1.09819Z" fill="#F0F1F4"/>
<path d="M20.6724 6.27153C20.6724 6.15744 20.7648 6.06494 20.8787 6.06494H23.9114C24.0254 6.06494 24.1178 6.15744 24.1178 6.27153V9.30743C24.1178 9.42152 24.0254 9.514 23.9114 9.514H20.8787C20.7648 9.514 20.6724 9.42152 20.6724 9.30743V6.27153Z" fill="#F0F1F4"/>
<path d="M20.6724 32.1397C20.6724 32.0256 20.7648 31.9331 20.8787 31.9331H23.9114C24.0254 31.9331 24.1178 32.0256 24.1178 32.1397V35.1756C24.1178 35.2897 24.0254 35.3822 23.9114 35.3822H20.8787C20.7648 35.3822 20.6724 35.2897 20.6724 35.1756V32.1397Z" fill="#F0F1F4"/>
<path d="M20.6724 37.313C20.6724 37.1989 20.7648 37.1064 20.8787 37.1064H23.9114C24.0254 37.1064 24.1178 37.1989 24.1178 37.313V40.3489C24.1178 40.463 24.0254 40.5555 23.9114 40.5555H20.8787C20.7648 40.5555 20.6724 40.463 20.6724 40.3489V37.313Z" fill="#F0F1F4"/>
<path d="M25.8406 37.313C25.8406 37.1989 25.933 37.1064 26.0469 37.1064H29.0796C29.1936 37.1064 29.286 37.1989 29.286 37.313V40.3489C29.286 40.463 29.1936 40.5555 29.0796 40.5555H26.0469C25.933 40.5555 25.8406 40.463 25.8406 40.3489V37.313Z" fill="#F0F1F4"/>
<path d="M20.6724 1.09819C20.6724 0.984093 20.7648 0.891602 20.8787 0.891602H23.9114C24.0254 0.891602 24.1178 0.984093 24.1178 1.09819V4.13407C24.1178 4.24818 24.0254 4.34067 23.9114 4.34067H20.8787C20.7648 4.34067 20.6724 4.24818 20.6724 4.13407V1.09819Z" fill="#F0F1F4"/>
<path d="M25.8406 6.27153C25.8406 6.15744 25.933 6.06494 26.0469 6.06494H29.0796C29.1936 6.06494 29.286 6.15744 29.286 6.27153V9.30743C29.286 9.42152 29.1936 9.514 29.0796 9.514H26.0469C25.933 9.514 25.8406 9.42152 25.8406 9.30743V6.27153Z" fill="#F0F1F4"/>
<path d="M25.8406 1.09819C25.8406 0.984093 25.933 0.891602 26.0469 0.891602H29.0796C29.1936 0.891602 29.286 0.984093 29.286 1.09819V4.13407C29.286 4.24818 29.1936 4.34067 29.0796 4.34067H26.0469C25.933 4.34067 25.8406 4.24818 25.8406 4.13407V1.09819Z" fill="#F0F1F4"/>
<path d="M31.0085 6.27153C31.0085 6.15744 31.1009 6.06494 31.2149 6.06494H34.2476C34.3616 6.06494 34.4539 6.15744 34.4539 6.27153V9.30743C34.4539 9.42152 34.3616 9.514 34.2476 9.514H31.2149C31.1009 9.514 31.0085 9.42152 31.0085 9.30743V6.27153Z" fill="#F0F1F4"/>
</g>
<defs>
<clipPath id="clip0_1_1013">
<rect width="256.08" height="40.3" fill="white" transform="translate(0 0.847656)"/>
</clipPath>
</defs>
</svg>
