<svg width="17" height="16" viewBox="0 0 17 16" fill="none" xmlns="http://www.w3.org/2000/svg">
<path d="M8.49992 8.66638C8.86811 8.66638 9.16659 8.36791 9.16659 7.99972C9.16659 7.63153 8.86811 7.33305 8.49992 7.33305C8.13173 7.33305 7.83325 7.63153 7.83325 7.99972C7.83325 8.36791 8.13173 8.66638 8.49992 8.66638Z" stroke="white" stroke-opacity="0.6" stroke-width="1.33333" stroke-linecap="round" stroke-linejoin="round"/>
<path d="M8.49992 3.99972C8.86811 3.99972 9.16659 3.70124 9.16659 3.33305C9.16659 2.96486 8.86811 2.66638 8.49992 2.66638C8.13173 2.66638 7.83325 2.96486 7.83325 3.33305C7.83325 3.70124 8.13173 3.99972 8.49992 3.99972Z" stroke="white" stroke-opacity="0.6" stroke-width="1.33333" stroke-linecap="round" stroke-linejoin="round"/>
<path d="M8.49992 13.333C8.86811 13.333 9.16659 13.0346 9.16659 12.6664C9.16659 12.2982 8.86811 11.9997 8.49992 11.9997C8.13173 11.9997 7.83325 12.2982 7.83325 12.6664C7.83325 13.0346 8.13173 13.333 8.49992 13.333Z" stroke="white" stroke-opacity="0.6" stroke-width="1.33333" stroke-linecap="round" stroke-linejoin="round"/>
</svg>
