<svg width="24" height="25" viewBox="0 0 24 25" fill="none" xmlns="http://www.w3.org/2000/svg">
<path d="M9.35395 21.8477C10.0591 22.47 10.9853 22.8477 11.9998 22.8477C13.0142 22.8477 13.9405 22.47 14.6456 21.8477M17.9998 8.84766C17.9998 7.25636 17.3676 5.73023 16.2424 4.60502C15.1172 3.4798 13.5911 2.84766 11.9998 2.84766C10.4085 2.84766 8.88235 3.4798 7.75713 4.60502C6.63192 5.73023 5.99977 7.25636 5.99977 8.84766C5.99977 11.9378 5.22024 14.0536 4.34944 15.4531C3.6149 16.6335 3.24763 17.2238 3.2611 17.3884C3.27601 17.5707 3.31463 17.6403 3.46155 17.7492C3.59423 17.8477 4.19237 17.8477 5.38863 17.8477H18.6109C19.8072 17.8477 20.4053 17.8477 20.538 17.7492C20.6849 17.6403 20.7235 17.5707 20.7384 17.3884C20.7519 17.2238 20.3846 16.6335 19.6501 15.4531C18.7793 14.0536 17.9998 11.9378 17.9998 8.84766Z" stroke="currentColor" stroke-opacity="0.5" stroke-width="1.2" stroke-linecap="round" stroke-linejoin="round"/>
</svg>
