<svg width="24" height="25" viewBox="0 0 24 25" fill="none" xmlns="http://www.w3.org/2000/svg">
<g opacity="0.5">
<path d="M14.9997 19.6953C14.9997 21.3522 13.6566 22.6953 11.9997 22.6953C10.3429 22.6953 8.99972 21.3522 8.99972 19.6953M13.7962 6.93387C14.2317 6.48395 14.4997 5.87093 14.4997 5.19531C14.4997 3.8146 13.3804 2.69531 11.9997 2.69531C10.619 2.69531 9.49972 3.8146 9.49972 5.19531C9.49972 5.87093 9.76772 6.48395 10.2032 6.93387M17.9997 11.8953C17.9997 10.5162 17.3676 9.19355 16.2424 8.21836C15.1171 7.24317 13.591 6.69531 11.9997 6.69531C10.4084 6.69531 8.8823 7.24317 7.75708 8.21836C6.63186 9.19355 5.99972 10.5162 5.99972 11.8953C5.99972 14.1771 5.43385 15.8459 4.72778 17.04C3.92306 18.4009 3.5207 19.0814 3.53659 19.244C3.55476 19.4299 3.58824 19.4886 3.73906 19.5989C3.87089 19.6953 4.53323 19.6953 5.85791 19.6953H18.1415C19.4662 19.6953 20.1286 19.6953 20.2604 19.5989C20.4112 19.4886 20.4447 19.4299 20.4629 19.244C20.4787 19.0814 20.0764 18.4009 19.2717 17.04C18.5656 15.8459 17.9997 14.1771 17.9997 11.8953Z" stroke="white" stroke-width="1.2" stroke-linecap="round" stroke-linejoin="round"/>
</g>
</svg>
