<svg width="24" height="25" viewBox="0 0 24 25" fill="none" xmlns="http://www.w3.org/2000/svg">
<path d="M12 3.34753V22.3475M20 12.8475C20 17.756 14.646 21.3259 12.698 22.4624C12.4766 22.5916 12.3659 22.6561 12.2097 22.6896C12.0884 22.7156 11.9116 22.7156 11.7903 22.6896C11.6341 22.6561 11.5234 22.5916 11.302 22.4624C9.35396 21.3259 4 17.756 4 12.8475V8.06513C4 7.26562 4 6.86586 4.13076 6.52223C4.24627 6.21867 4.43398 5.9478 4.67766 5.73306C4.9535 5.48997 5.3278 5.3496 6.0764 5.06888L11.4382 3.0582C11.6461 2.98024 11.75 2.94126 11.857 2.92581C11.9518 2.9121 12.0482 2.9121 12.143 2.92581C12.25 2.94126 12.3539 2.98024 12.5618 3.0582L17.9236 5.06888C18.6722 5.3496 19.0465 5.48997 19.3223 5.73306C19.566 5.9478 19.7537 6.21867 19.8692 6.52223C20 6.86586 20 7.26562 20 8.06513V12.8475Z" stroke="currentColor" stroke-opacity="0.5" stroke-width="1.2" stroke-linecap="round" stroke-linejoin="round"/>
</svg>
