<svg width="40" height="22" viewBox="0 0 40 22" fill="none" xmlns="http://www.w3.org/2000/svg">
<rect width="39.084" height="22" transform="translate(0.916016 -0.000244141)" fill="white" fill-opacity="0.1"/>
<path d="M12.166 9.24976V7.49976C12.166 6.53326 11.3825 5.74976 10.416 5.74976C9.44952 5.74976 8.66602 6.53326 8.66602 7.49976C8.66602 8.46625 9.44952 9.24976 10.416 9.24976H12.166ZM12.166 9.24976V12.7498M12.166 9.24976H15.666M12.166 12.7498V14.4998C12.166 15.4663 11.3825 16.2498 10.416 16.2498C9.44952 16.2498 8.66602 15.4663 8.66602 14.4998C8.66602 13.5333 9.44952 12.7498 10.416 12.7498H12.166ZM12.166 12.7498H15.666M15.666 12.7498H17.416C18.3825 12.7498 19.166 13.5333 19.166 14.4998C19.166 15.4663 18.3825 16.2498 17.416 16.2498C16.4495 16.2498 15.666 15.4663 15.666 14.4998V12.7498ZM15.666 12.7498V9.24976M15.666 9.24976V7.49976C15.666 6.53326 16.4495 5.74976 17.416 5.74976C18.3825 5.74976 19.166 6.53326 19.166 7.49976C19.166 8.46625 18.3825 9.24976 17.416 9.24976H15.666Z" stroke="white" stroke-opacity="0.5" stroke-width="1.16667" stroke-linecap="round" stroke-linejoin="round"/>
<path d="M26.916 15.8858V6.11377H34V7.37377H28.4V10.1878H32.278V11.4478H28.4V15.8858H26.916Z" fill="white" fill-opacity="0.5"/>
</svg>
