<svg width="24" height="24" viewBox="0 0 24 24" fill="none" xmlns="http://www.w3.org/2000/svg">
<path d="M8.46445 8.46423L4.92893 4.92871M4.92893 19.0708L8.46448 15.5353M15.5355 15.5353L19.0711 19.0708M19.0711 4.92867L15.5355 8.46421M22 11.9998C22 17.5226 17.5228 21.9998 12 21.9998C6.47715 21.9998 2 17.5226 2 11.9998C2 6.47691 6.47715 1.99976 12 1.99976C17.5228 1.99976 22 6.47691 22 11.9998ZM17 11.9998C17 14.7612 14.7614 16.9998 12 16.9998C9.23858 16.9998 7 14.7612 7 11.9998C7 9.23833 9.23858 6.99976 12 6.99976C14.7614 6.99976 17 9.23833 17 11.9998Z" stroke="currentColor" stroke-width="1.2" stroke-linecap="round" stroke-linejoin="round"/>
</svg>
