<svg width="16" height="16" viewBox="0 0 16 16" fill="none" xmlns="http://www.w3.org/2000/svg">
<path d="M3.33868 10.091C3.33868 11.0107 2.59537 11.754 1.67569 11.754C0.756002 11.754 0.0126953 11.0107 0.0126953 10.091C0.0126953 9.17134 0.756002 8.42803 1.67569 8.42803H3.33868V10.091ZM4.17018 10.091C4.17018 9.17134 4.91348 8.42803 5.83317 8.42803C6.75285 8.42803 7.49616 9.17134 7.49616 10.091V14.2485C7.49616 15.1682 6.75285 15.9115 5.83317 15.9115C4.91348 15.9115 4.17018 15.1682 4.17018 14.2485V10.091Z" fill="#E01E5A"/>
<path d="M5.83307 3.41392C4.91339 3.41392 4.17008 2.67061 4.17008 1.75092C4.17008 0.83124 4.91339 0.0879326 5.83307 0.0879326C6.75276 0.0879326 7.49606 0.83124 7.49606 1.75092V3.41392H5.83307ZM5.83307 4.25801C6.75276 4.25801 7.49606 5.00132 7.49606 5.921C7.49606 6.84069 6.75276 7.584 5.83307 7.584H1.66299C0.743307 7.584 0 6.84069 0 5.921C0 5.00132 0.743307 4.25801 1.66299 4.25801H5.83307Z" fill="#36C5F0"/>
<path d="M12.4978 5.92092C12.4978 5.00124 13.2411 4.25793 14.1608 4.25793C15.0805 4.25793 15.8238 5.00124 15.8238 5.92092C15.8238 6.84061 15.0805 7.58391 14.1608 7.58391H12.4978V5.92092ZM11.6663 5.92092C11.6663 6.84061 10.923 7.58391 10.0033 7.58391C9.08364 7.58391 8.34033 6.84061 8.34033 5.92092V1.75084C8.34033 0.831159 9.08364 0.087852 10.0033 0.087852C10.923 0.087852 11.6663 0.831159 11.6663 1.75084V5.92092Z" fill="#2EB67D"/>
<path d="M10.0033 12.5855C10.923 12.5855 11.6663 13.3288 11.6663 14.2485C11.6663 15.1682 10.923 15.9115 10.0033 15.9115C9.08364 15.9115 8.34033 15.1682 8.34033 14.2485V12.5855H10.0033ZM10.0033 11.754C9.08364 11.754 8.34033 11.0107 8.34033 10.091C8.34033 9.17134 9.08364 8.42803 10.0033 8.42803H14.1734C15.0931 8.42803 15.8364 9.17134 15.8364 10.091C15.8364 11.0107 15.0931 11.754 14.1734 11.754H10.0033Z" fill="#ECB22E"/>
</svg>
