<svg width="90" height="90" viewBox="0 0 90 90" fill="none" xmlns="http://www.w3.org/2000/svg">
<path d="M63.75 37.5V30C63.75 19.6447 55.3553 11.25 45 11.25C34.6447 11.25 26.25 19.6447 26.25 30V37.5M45 54.375V61.875M33 78.75H57C63.3006 78.75 66.4509 78.75 68.8574 77.5238C70.9742 76.4452 72.6952 74.7242 73.7738 72.6074C75 70.2009 75 67.0506 75 60.75V55.5C75 49.1994 75 46.0491 73.7738 43.6426C72.6952 41.5258 70.9742 39.8048 68.8574 38.7262C66.4509 37.5 63.3006 37.5 57 37.5H33C26.6994 37.5 23.5491 37.5 21.1426 38.7262C19.0258 39.8048 17.3048 41.5258 16.2262 43.6426C15 46.0491 15 49.1994 15 55.5V60.75C15 67.0506 15 70.2009 16.2262 72.6074C17.3048 74.7242 19.0258 76.4452 21.1426 77.5238C23.5491 78.75 26.6994 78.75 33 78.75Z" stroke="white" stroke-width="3" stroke-linecap="round" stroke-linejoin="round"/>
</svg>
