<svg width="24" height="25" viewBox="0 0 24 25" fill="none" xmlns="http://www.w3.org/2000/svg">
<path d="M20 21.8477C20 20.4521 20 19.7543 19.8278 19.1865C19.44 17.9081 18.4395 16.9077 17.1611 16.5199C16.5933 16.3477 15.8956 16.3477 14.5 16.3477H9.5C8.10444 16.3477 7.40665 16.3477 6.83886 16.5199C5.56045 16.9077 4.56004 17.9081 4.17224 19.1865C4 19.7543 4 20.4521 4 21.8477M16.5 8.34766C16.5 10.8329 14.4853 12.8477 12 12.8477C9.51472 12.8477 7.5 10.8329 7.5 8.34766C7.5 5.86237 9.51472 3.84766 12 3.84766C14.4853 3.84766 16.5 5.86237 16.5 8.34766Z" stroke="currentColor" stroke-width="1.2" stroke-linecap="round" stroke-linejoin="round"/>
</svg>
